<svg xmlns="http://www.w3.org/2000/svg" xmlns:xlink="http://www.w3.org/1999/xlink" xmlns:lucid="lucid" width="1160" height="700"><g transform="translate(-40 -20)" lucid:page-tab-id="0_0"><path d="M80 120h320v80H80z" fill="#ffbbb1"/><path d="M110.48 120h30.47m15.24 0h30.47m15.23 0h30.48m15.24 0h30.48m15.23 0h30.48m15.25 0h30.47m15.24 0H400v13.33m0 13.34v26.66m0 13.34V200h-15.24m-15.24 0h-30.47m-15.24 0h-30.47m-15.23 0h-30.48m-15.24 0H201.9m-15.23 0H156.2m-15.25 0h-30.47m-15.24 0H80v-13.33m0-13.34v-26.66m0-13.34V120h15.24" stroke="#000" stroke-width="3" fill="none"/><use xlink:href="#a" transform="matrix(1,0,0,1,85,125) translate(51.41388888888892 28.893055555555552)"/><use xlink:href="#b" transform="matrix(1,0,0,1,85,125) translate(94.025 52.27083333333333)"/><path d="M101.33 280H400l-21.33 80H80z" stroke="#000" stroke-width="3" fill="#b2d6ef"/><use xlink:href="#c" transform="matrix(1,0,0,1,85,285) translate(27.141419753086446 28.893055555555552)"/><use xlink:href="#d" transform="matrix(1,0,0,1,85,285) translate(34.95500000000002 52.27083333333333)"/><use xlink:href="#e" transform="matrix(1,0,0,1,85,285) translate(167.905 52.27083333333333)"/><path d="M581.33 280H880l-21.33 80H560z" fill="#b2d6ef"/><path d="M609.78 280h28.44m14.22 0h28.45m14.2 0h28.46m14.22 0h28.44m14.22 0h28.45m14.2 0h28.46m14.22 0H880l-3.56 13.33m-3.55 13.34l-7.12 26.66m-3.56 13.34L858.67 360h-14.23m-14.22 0h-28.44m-14.22 0H759.1m-14.2 0h-28.46m-14.22 0h-28.44m-14.22 0H631.1m-14.2 0h-28.46m-14.22 0H560l3.56-13.33m3.55-13.34l7.12-26.66m3.56-13.34l3.55-13.33h14.23" stroke="#000" stroke-width="3" fill="none"/><use xlink:href="#f" transform="matrix(1,0,0,1,565,285) translate(58.43895061728397 28.893055555555552)"/><use xlink:href="#g" transform="matrix(1,0,0,1,565,285) translate(40.45500000000002 52.27083333333333)"/><use xlink:href="#e" transform="matrix(1,0,0,1,565,285) translate(162.40500000000003 52.27083333333333)"/><path d="M336 440c35.35 0 64 17.9 64 40s-28.65 40-64 40H144c-35.35 0-64-17.9-64-40s28.65-40 64-40z" stroke="#000" stroke-width="3" fill="#99d5ca"/><use xlink:href="#h" transform="matrix(1,0,0,1,85,445) translate(37.82629629629631 28.893055555555552)"/><use xlink:href="#i" transform="matrix(1,0,0,1,85,445) translate(64.63000000000004 52.27083333333333)"/><use xlink:href="#j" transform="matrix(1,0,0,1,85,445) translate(167.48000000000002 52.27083333333333)"/><use xlink:href="#k" transform="matrix(1,0,0,1,85,445) translate(203.48 52.27083333333333)"/><path d="M816 440c35.35 0 64 17.9 64 40s-28.65 40-64 40H624c-35.35 0-64-17.9-64-40s28.65-40 64-40z" stroke="#000" stroke-width="3" fill="#99d5ca"/><use xlink:href="#l" transform="matrix(1,0,0,1,565,445) translate(82.21641975308646 28.893055555555552)"/><use xlink:href="#i" transform="matrix(1,0,0,1,565,445) translate(64.63000000000004 52.27083333333333)"/><use xlink:href="#j" transform="matrix(1,0,0,1,565,445) translate(167.48000000000002 52.27083333333333)"/><use xlink:href="#k" transform="matrix(1,0,0,1,565,445) translate(203.48 52.27083333333333)"/><path d="M560 120h320v80H560z" fill="#ffbbb1"/><path d="M590.48 120h30.47m15.24 0h30.47m15.23 0h30.48m15.24 0h30.48m15.23 0h30.48m15.25 0h30.47m15.24 0H880v13.33m0 13.34v26.66m0 13.34V200h-15.24m-15.24 0h-30.47m-15.24 0h-30.47m-15.23 0h-30.48m-15.24 0H681.9m-15.23 0H636.2m-15.25 0h-30.47m-15.24 0H560v-13.33m0-13.34v-26.66m0-13.34V120h15.24" stroke="#000" stroke-width="3" fill="none"/><use xlink:href="#m" transform="matrix(1,0,0,1,565,125) translate(49.04475308641976 28.893055555555552)"/><use xlink:href="#n" transform="matrix(1,0,0,1,565,125) translate(99.525 52.27083333333333)"/><path d="M321.96 278.5h-3v-18.48h3zm0-40.08h-3v-16.3h3z"/><path d="M321.96 278.5h-3l3-.04zM325.1 220.62h-9.27l4.63-14.27z"/><path d="M327.16 222.12h-13.4l6.7-20.62zm-9.27-3h5.13l-2.57-7.9z"/><use xlink:href="#o" transform="matrix(1,0,0,1,282.46158022006057,238.41955137199872) translate(0 14.4)"/><path d="M161.96 259.38h-3v-17.03h3zm0-38.63h-3V203h3z"/><path d="M161.96 203.04h-3v-1.54h3zM160.46 275.15l-4.63-14.27h9.27z"/><path d="M160.46 280l-6.7-20.62h13.4zm-2.57-17.62l2.56 7.9 2.57-7.9z"/><use xlink:href="#p" transform="matrix(1,0,0,1,124.0365802200604,220.74855570100308) translate(0 14.4)"/><path d="M320.63 437h-3v-17.12h3zm0-38.72h-3v-17.66h3z"/><path d="M320.63 438.5h-3v-1.54h3zM323.76 379.12h-9.27l4.63-14.27z"/><path d="M325.83 380.62h-13.4l6.7-20.62zm-9.27-3h5.14l-2.57-7.9z"/><use xlink:href="#p" transform="matrix(1,0,0,1,282.70324688672724,398.2788587313061) translate(0 14.4)"/><path d="M161.96 417.88h-3V402.2h3zm0-37.27h-3v-19.1h3z"/><path d="M161.96 361.54h-3l3-.04zM160.46 433.64l-4.63-14.26h9.27z"/><path d="M160.46 438.5l-6.7-20.62h13.4zm-2.57-17.62l2.56 7.9 2.57-7.9z"/><use xlink:href="#q" transform="matrix(1,0,0,1,108.08658022006045,380.6078630603105) translate(0 14.4)"/><path d="M801.96 278.5h-3v-18.48h3zm0-40.08h-3v-16.3h3z"/><path d="M801.96 278.5h-3l3-.04zM805.1 220.62h-9.27l4.63-14.27z"/><path d="M807.16 222.12h-13.4l6.7-20.62zm-9.27-3h5.13l-2.57-7.9z"/><use xlink:href="#o" transform="matrix(1,0,0,1,762.4615802200606,238.41955137199872) translate(0 14.4)"/><path d="M641.96 259.38h-3V243.7h3zm0-37.27h-3V203h3z"/><path d="M641.96 203.04h-3v-1.54h3zM640.46 275.15l-4.63-14.27h9.27z"/><path d="M640.46 280l-6.7-20.62h13.4zm-2.57-17.62l2.56 7.9 2.57-7.9z"/><use xlink:href="#p" transform="matrix(1,0,0,1,604.0365802200606,222.10786306031042) translate(0 14.4)"/><path d="M801.96 437h-3v-18.48h3zm0-40.08h-3v-16.3h3z"/><path d="M801.96 438.5h-3v-1.54h3zM805.1 379.12h-9.27l4.63-14.27z"/><path d="M807.16 380.62h-13.4l6.7-20.62zm-9.27-3h5.13l-2.57-7.9z"/><use xlink:href="#p" transform="matrix(1,0,0,1,764.0365802200606,396.91955137199875) translate(0 14.4)"/><path d="M643.3 417.88h-3V402.2h3zm0-37.27h-3v-19.1h3z"/><path d="M643.3 361.54h-3l3-.04zM641.8 433.65l-4.64-14.27h9.27z"/><path d="M641.8 438.5l-6.7-20.62h13.4zm-2.58-17.62l2.57 7.9 2.57-7.9z"/><use xlink:href="#q" transform="matrix(1,0,0,1,589.4199135533939,380.6078630603104) translate(0 14.4)"/><path d="M429.8 348.5h16.8v3h-19.8v-20.25h-37v-3h40zm116.38-18.32H528.3v21.32h-18.75v-3h15.75v-21.32h20.88z"/><path d="M389.82 331.25h-1.93l.8-3h1.12zM561.95 328.68l-14.27 4.63v-9.26z"/><path d="M566.8 328.68l-20.62 6.7v-13.4zm-17.62 2.57l7.9-2.57-7.9-2.58z"/><use xlink:href="#r" transform="matrix(1,0,0,1,446.60436547361417,339.2) translate(0 14.4)"/><path d="M446.25 291.5H434.8v20.9h-20.87v-3h17.88v-20.9h14.45zm87.24 16.22h37v3h-40V291.5h-13.15v-3h16.14z"/><path d="M571.6 310.72h-1.15v-3h1.94zM412.43 315.55l-14.27-4.64 14.27-4.62z"/><path d="M413.93 317.6l-20.62-6.7 20.63-6.7zm-10.9-6.7l7.9 2.58v-5.14z"/><use xlink:href="#s" transform="matrix(1,0,0,1,446.2549312786196,279.2) translate(0 14.4)"/><path d="M389.6 538.5h28.9v-20h30.02v3H421.5v20h-34.9v-34.82h3zm151.9 0h28.9v-12.7h3v15.7h-34.9v-20h-27.03v-3h30.03z"/><path d="M389.6 506.72h-3v-.35l2.23-1.78.76-.72zM576.53 524.3h-9.27l4.63-14.27z"/><path d="M578.6 525.8h-13.4l6.7-20.62zm-9.28-3h5.14l-2.57-7.9z"/><use xlink:href="#r" transform="matrix(1,0,0,1,448.5166897152711,509.2) translate(0 14.4)"/><path d="M572.15 454.4h-3v-37H541.5v24.1h-25.96v-3h22.96v-24.1h33.65zM421.5 438.5h22.94v3H418.5v-24.1h-27.66v17.87h-3V414.4h33.66z"/><path d="M572.15 454.63l-.98.78-2.02 1.9v-2.95h3zM389.34 451.04l-4.64-14.27h9.27z"/><path d="M389.34 455.9l-6.7-20.63h13.4zm-2.57-17.63l2.57 7.92 2.57-7.93z"/><use xlink:href="#s" transform="matrix(1,0,0,1,444.443982076448,429.2) translate(0 14.4)"/><path d="M940 106.6h240v106.8H940z" stroke="#000" stroke-opacity="0" stroke-width="3" fill="#fff" fill-opacity="0"/><use xlink:href="#t" transform="matrix(1,0,0,1,945,111.60000000000001) translate(0 42.729861111111106)"/><use xlink:href="#u" transform="matrix(1,0,0,1,945,111.60000000000001) translate(111.96234567901232 42.729861111111106)"/><use xlink:href="#v" transform="matrix(1,0,0,1,945,111.60000000000001) translate(0 69.66319444444443)"/><use xlink:href="#w" transform="matrix(1,0,0,1,945,111.60000000000001) translate(12.301851851851843 69.66319444444443)"/><use xlink:href="#x" transform="matrix(1,0,0,1,945,111.60000000000001) translate(116.95185185185179 69.66319444444443)"/><path d="M940 240h240v160H940z" stroke="#000" stroke-opacity="0" stroke-width="3" fill="#fff" fill-opacity="0"/><use xlink:href="#y" transform="matrix(1,0,0,1,945,245) translate(0 54.323611111111106)"/><use xlink:href="#z" transform="matrix(1,0,0,1,945,245) translate(71.629012345679 54.323611111111106)"/><use xlink:href="#A" transform="matrix(1,0,0,1,945,245) translate(0 81.25694444444443)"/><use xlink:href="#B" transform="matrix(1,0,0,1,945,245) translate(12.301851851851843 81.25694444444443)"/><use xlink:href="#C" transform="matrix(1,0,0,1,945,245) translate(60.55432098765428 81.25694444444443)"/><use xlink:href="#A" transform="matrix(1,0,0,1,945,245) translate(0 105.52361111111108)"/><use xlink:href="#D" transform="matrix(1,0,0,1,945,245) translate(12.301851851851843 105.52361111111108)"/><use xlink:href="#E" transform="matrix(1,0,0,1,945,245) translate(63.92469135802465 105.52361111111108)"/><path d="M940 426.6h240v106.8H940z" stroke="#000" stroke-opacity="0" stroke-width="3" fill="#fff" fill-opacity="0"/><use xlink:href="#F" transform="matrix(1,0,0,1,945,431.6) translate(0 30.604861111111106)"/><use xlink:href="#G" transform="matrix(1,0,0,1,945,431.6) translate(58.558024691358014 30.604861111111106)"/><use xlink:href="#H" transform="matrix(1,0,0,1,945,431.6) translate(133.09999999999997 30.604861111111106)"/><use xlink:href="#I" transform="matrix(1,0,0,1,945,431.6) translate(0 57.53819444444443)"/><use xlink:href="#J" transform="matrix(1,0,0,1,945,431.6) translate(12.301851851851843 57.53819444444443)"/><use xlink:href="#K" transform="matrix(1,0,0,1,945,431.6) translate(99.76296296296289 57.53819444444443)"/><use xlink:href="#I" transform="matrix(1,0,0,1,945,431.6) translate(0 81.80486111111108)"/><use xlink:href="#J" transform="matrix(1,0,0,1,945,431.6) translate(12.301851851851843 81.80486111111108)"/><use xlink:href="#L" transform="matrix(1,0,0,1,945,431.6) translate(99.76296296296289 81.80486111111108)"/><path d="M60 40h820v60H60z" stroke="#000" stroke-opacity="0" stroke-width="3" fill="#fff" fill-opacity="0"/><use xlink:href="#M" transform="matrix(1,0,0,1,65,45) translate(114.78549382716068 35.302777777777756)"/><use xlink:href="#N" transform="matrix(1,0,0,1,65,45) translate(295.33858024691364 35.302777777777756)"/><use xlink:href="#O" transform="matrix(1,0,0,1,65,45) translate(484.15956790123454 35.302777777777756)"/><use xlink:href="#P" transform="matrix(1,0,0,1,65,45) translate(582.2570987654319 35.302777777777756)"/><path d="M456 620h168l56 40-56 40H456l-56-40z" stroke="#000" stroke-width="3" fill="#ffdba9"/><use xlink:href="#Q" transform="matrix(1,0,0,1,405,625) translate(34.81549382716052 28.893055555555552)"/><use xlink:href="#i" transform="matrix(1,0,0,1,405,625) translate(44.63000000000004 52.27083333333333)"/><use xlink:href="#j" transform="matrix(1,0,0,1,405,625) translate(147.48000000000002 52.27083333333333)"/><use xlink:href="#k" transform="matrix(1,0,0,1,405,625) translate(183.48 52.27083333333333)"/><path d="M816 620h168l56 40-56 40H816l-56-40z" stroke="#000" stroke-width="3" fill="#ffdba9"/><use xlink:href="#R" transform="matrix(1,0,0,1,765,625) translate(32.10345679012349 28.893055555555552)"/><use xlink:href="#i" transform="matrix(1,0,0,1,765,625) translate(44.63000000000004 52.27083333333333)"/><use xlink:href="#j" transform="matrix(1,0,0,1,765,625) translate(147.48000000000002 52.27083333333333)"/><use xlink:href="#k" transform="matrix(1,0,0,1,765,625) translate(183.48 52.27083333333333)"/><path d="M680.63 611.6h-25.05v7.42h-3v-10.4h25.05v-44.18h3zm0-68.76h-3V523h3z"/><path d="M680.63 523.04h-3v-1.54h3zM654.08 634.8l-4.64-14.28h9.28z"/><path d="M654.08 639.64l-6.7-20.62h13.4zm-2.57-17.62l2.58 7.9 2.57-7.9z"/><g><use xlink:href="#S" transform="matrix(1,0,0,1,625.6782468867272,542.8410446768924) translate(0 14.4)"/></g><path d="M608.63 617h-3v-13.9h3zm0-35.5h-3v-40.8h3z"/><path d="M608.63 618.5h-3v-1.54h3zM611.76 539.2h-9.27l4.63-14.26z"/><path d="M613.83 540.7h-13.4l6.7-20.6zm-9.27-3h5.14l-2.57-7.9z"/><g><use xlink:href="#T" transform="matrix(1,0,0,1,573.0282468867271,581.507711343559) translate(0 14.4)"/></g><path d="M760.63 608.5h25.9v11.17h-3v-8.17h-25.9v-16.4h3zm0-35h-3V523h3z"/><path d="M760.63 523.04h-3v-1.54h3zM785.02 635.43l-4.64-14.26h9.27z"/><path d="M785.02 640.3l-6.7-20.63h13.4zm-2.57-17.63l2.57 7.9 2.57-7.9z"/><g><use xlink:href="#U" transform="matrix(1,0,0,1,703.5032468867272,573.507711343559) translate(0 14.4)"/></g><path d="M849.96 617h-3v-45.9h3zm0-67.5h-3v-12.86h3z"/><path d="M849.96 618.5h-3v-1.54h3zM853.1 535.14h-9.27l4.63-14.27z"/><path d="M855.16 536.64h-13.4l6.7-20.62zm-9.27-3h5.13l-2.57-7.9z"/><g><use xlink:href="#V" transform="matrix(1,0,0,1,816.5365802200606,549.507711343559) translate(0 14.4)"/></g><path d="M940 540h240v80H940z" stroke="#000" stroke-opacity="0" stroke-width="3" fill="#fff" fill-opacity="0"/><g><use xlink:href="#W" transform="matrix(1,0,0,1,945,545) translate(0 41.198611111111106)"/><use xlink:href="#X" transform="matrix(1,0,0,1,945,545) translate(95.45555555555552 41.198611111111106)"/></g><path d="M920 40h260v60H920z" stroke="#000" stroke-opacity="0" stroke-width="3" fill="#fff" fill-opacity="0"/><g><use xlink:href="#Y" transform="matrix(1,0,0,1,925,45) translate(21.55000000000001 30.025)"/><use xlink:href="#Z" transform="matrix(1,0,0,1,925,45) translate(78.55000000000001 30.025)"/><use xlink:href="#aa" transform="matrix(1,0,0,1,925,45) translate(97.20000000000002 30.025)"/><use xlink:href="#ab" transform="matrix(1,0,0,1,925,45) translate(141.05 30.025)"/><use xlink:href="#ac" transform="matrix(1,0,0,1,925,45) translate(180 30.025)"/><use xlink:href="#ad" transform="matrix(1,0,0,1,925,45) translate(210 30.025)"/></g><path d="M136 600h168l56 40-56 40H136l-56-40z" stroke="#000" stroke-width="3" fill="#ffdba9"/><g><use xlink:href="#ae" transform="matrix(1,0,0,1,85,605) translate(61.43709876543214 28.893055555555552)"/><use xlink:href="#i" transform="matrix(1,0,0,1,85,605) translate(44.63000000000004 52.27083333333333)"/><use xlink:href="#j" transform="matrix(1,0,0,1,85,605) translate(147.48000000000002 52.27083333333333)"/><use xlink:href="#k" transform="matrix(1,0,0,1,85,605) translate(183.48 52.27083333333333)"/></g><path d="M160.68 577.88h-3V563.3h3zm0-36.17h-3V523h3z"/><path d="M160.68 523.04h-3v-1.54h3zM159.18 593.65l-4.64-14.27h9.27z"/><path d="M159.18 598.5l-6.7-20.62h13.4zm-2.57-17.62l2.58 7.9 2.57-7.9z"/><g><use xlink:href="#af" transform="matrix(1,0,0,1,127.07951140695401,541.7128374043307) translate(0 14.4)"/></g><path d="M280.88 597h-3v-16.35h3zm0-37.95h-3v-16.93h3z"/><path d="M280.88 598.5h-3v-1.54h3zM284.02 540.62h-9.27l4.63-14.27z"/><path d="M286.08 542.12h-13.4l6.7-20.62zm-9.27-3h5.16l-2.58-7.9z"/><g><use xlink:href="#ag" transform="matrix(1,0,0,1,244.4596462708734,559.046170737664) translate(0 14.4)"/></g><defs><path d="M127-220V0H93v-220H8v-28h204v28h-85" id="ah"/><path d="M100-194c63 0 86 42 84 106H49c0 40 14 67 53 68 26 1 43-12 49-29l28 8c-11 28-37 45-77 45C44 4 14-33 15-96c1-61 26-98 85-98zm52 81c6-60-76-77-97-28-3 7-6 17-6 28h103" id="ai"/><path d="M210-169c-67 3-38 105-44 169h-31v-121c0-29-5-50-35-48C34-165 62-65 56 0H25l-1-190h30c1 10-1 24 2 32 10-44 99-50 107 0 11-21 27-35 58-36 85-2 47 119 55 194h-31v-121c0-29-5-49-35-48" id="aj"/><path d="M115-194c55 1 70 41 70 98S169 2 115 4C84 4 66-9 55-30l1 105H24l-1-265h31l2 30c10-21 28-34 59-34zm-8 174c40 0 45-34 45-75s-6-73-45-74c-42 0-51 32-51 76 0 43 10 73 51 73" id="ak"/><path d="M100-194c62-1 85 37 85 99 1 63-27 99-86 99S16-35 15-95c0-66 28-99 85-99zM99-20c44 1 53-31 53-75 0-43-8-75-51-75s-53 32-53 75 10 74 51 75" id="al"/><path d="M114-163C36-179 61-72 57 0H25l-1-190h30c1 12-1 29 2 39 6-27 23-49 58-41v29" id="am"/><path d="M141-36C126-15 110 5 73 4 37 3 15-17 15-53c-1-64 63-63 125-63 3-35-9-54-41-54-24 1-41 7-42 31l-33-3c5-37 33-52 76-52 45 0 72 20 72 64v82c-1 20 7 32 28 27v20c-31 9-61-2-59-35zM48-53c0 20 12 33 32 33 41-3 63-29 60-74-43 2-92-5-92 41" id="an"/><path d="M24 0v-261h32V0H24" id="ao"/><path d="M33 0v-38h34V0H33" id="ap"/><path d="M24-231v-30h32v30H24zM24 0v-190h32V0H24" id="aq"/><path d="M135-143c-3-34-86-38-87 0 15 53 115 12 119 90S17 21 10-45l28-5c4 36 97 45 98 0-10-56-113-15-118-90-4-57 82-63 122-42 12 7 21 19 24 35" id="ar"/><path d="M59-47c-2 24 18 29 38 22v24C64 9 27 4 27-40v-127H5v-23h24l9-43h21v43h35v23H59v120" id="as"/><g id="a"><use transform="matrix(0.06234567901234567,0,0,0.06234567901234567,0,0)" xlink:href="#ah"/><use transform="matrix(0.06234567901234567,0,0,0.06234567901234567,11.159876543209876,0)" xlink:href="#ai"/><use transform="matrix(0.06234567901234567,0,0,0.06234567901234567,23.62901234567901,0)" xlink:href="#aj"/><use transform="matrix(0.06234567901234567,0,0,0.06234567901234567,42.27037037037036,0)" xlink:href="#ak"/><use transform="matrix(0.06234567901234567,0,0,0.06234567901234567,54.73950617283949,0)" xlink:href="#al"/><use transform="matrix(0.06234567901234567,0,0,0.06234567901234567,67.20864197530862,0)" xlink:href="#am"/><use transform="matrix(0.06234567901234567,0,0,0.06234567901234567,74.62777777777775,0)" xlink:href="#an"/><use transform="matrix(0.06234567901234567,0,0,0.06234567901234567,87.09691358024688,0)" xlink:href="#ao"/><use transform="matrix(0.06234567901234567,0,0,0.06234567901234567,92.02222222222218,0)" xlink:href="#ap"/><use transform="matrix(0.06234567901234567,0,0,0.06234567901234567,98.25679012345675,0)" xlink:href="#ah"/><use transform="matrix(0.06234567901234567,0,0,0.06234567901234567,111.09999999999995,0)" xlink:href="#aq"/><use transform="matrix(0.06234567901234567,0,0,0.06234567901234567,116.02530864197526,0)" xlink:href="#aj"/><use transform="matrix(0.06234567901234567,0,0,0.06234567901234567,134.6666666666666,0)" xlink:href="#ai"/><use transform="matrix(0.06234567901234567,0,0,0.06234567901234567,147.13580246913574,0)" xlink:href="#ar"/><use transform="matrix(0.06234567901234567,0,0,0.06234567901234567,158.35802469135797,0)" xlink:href="#as"/><use transform="matrix(0.06234567901234567,0,0,0.06234567901234567,164.59259259259252,0)" xlink:href="#an"/><use transform="matrix(0.06234567901234567,0,0,0.06234567901234567,177.06172839506166,0)" xlink:href="#aj"/><use transform="matrix(0.06234567901234567,0,0,0.06234567901234567,195.70308641975302,0)" xlink:href="#ak"/></g><path d="M26 75v-336h71v23H56V52h41v23H26" id="at"/><path d="M30 0v-248h187v28H63v79h144v27H63v87h162V0H30" id="au"/><path d="M96-169c-40 0-48 33-48 73s9 75 48 75c24 0 41-14 43-38l32 2c-6 37-31 61-74 61-59 0-76-41-82-99-10-93 101-131 147-64 4 7 5 14 7 22l-32 3c-4-21-16-35-41-35" id="av"/><path d="M106-169C34-169 62-67 57 0H25v-261h32l-1 103c12-21 28-36 61-36 89 0 53 116 60 194h-32v-121c2-32-8-49-39-48" id="aw"/><path d="M190 0L58-211 59 0H30v-248h39L202-35l-2-213h31V0h-41" id="ax"/><path d="M117-194c89-4 53 116 60 194h-32v-121c0-31-8-49-39-48C34-167 62-67 57 0H25l-1-190h30c1 10-1 24 2 32 11-22 29-35 61-36" id="ay"/><path d="M3 75V52h41v-290H3v-23h71V75H3" id="az"/><g id="b"><use transform="matrix(0.04999999999999998,0,0,0.04999999999999998,0,0)" xlink:href="#at"/><use transform="matrix(0.04999999999999998,0,0,0.04999999999999998,4.999999999999998,0)" xlink:href="#at"/><use transform="matrix(0.04999999999999998,0,0,0.04999999999999998,9.999999999999996,0)" xlink:href="#au"/><use transform="matrix(0.04999999999999998,0,0,0.04999999999999998,21.999999999999993,0)" xlink:href="#ak"/><use transform="matrix(0.04999999999999998,0,0,0.04999999999999998,31.99999999999999,0)" xlink:href="#al"/><use transform="matrix(0.04999999999999998,0,0,0.04999999999999998,41.999999999999986,0)" xlink:href="#av"/><use transform="matrix(0.04999999999999998,0,0,0.04999999999999998,50.999999999999986,0)" xlink:href="#aw"/><use transform="matrix(0.04999999999999998,0,0,0.04999999999999998,60.99999999999999,0)" xlink:href="#ax"/><use transform="matrix(0.04999999999999998,0,0,0.04999999999999998,73.94999999999999,0)" xlink:href="#an"/><use transform="matrix(0.04999999999999998,0,0,0.04999999999999998,83.94999999999999,0)" xlink:href="#ay"/><use transform="matrix(0.04999999999999998,0,0,0.04999999999999998,93.94999999999999,0)" xlink:href="#al"/><use transform="matrix(0.04999999999999998,0,0,0.04999999999999998,103.94999999999999,0)" xlink:href="#ar"/><use transform="matrix(0.04999999999999998,0,0,0.04999999999999998,112.94999999999999,0)" xlink:href="#az"/><use transform="matrix(0.04999999999999998,0,0,0.04999999999999998,117.94999999999997,0)" xlink:href="#az"/></g><path d="M30 0v-248h33v221h125V0H30" id="aA"/><g id="c"><use transform="matrix(0.06234567901234567,0,0,0.06234567901234567,0,0)" xlink:href="#ah"/><use transform="matrix(0.06234567901234567,0,0,0.06234567901234567,11.159876543209876,0)" xlink:href="#ai"/><use transform="matrix(0.06234567901234567,0,0,0.06234567901234567,23.62901234567901,0)" xlink:href="#aj"/><use transform="matrix(0.06234567901234567,0,0,0.06234567901234567,42.27037037037036,0)" xlink:href="#ak"/><use transform="matrix(0.06234567901234567,0,0,0.06234567901234567,54.73950617283949,0)" xlink:href="#al"/><use transform="matrix(0.06234567901234567,0,0,0.06234567901234567,67.20864197530862,0)" xlink:href="#am"/><use transform="matrix(0.06234567901234567,0,0,0.06234567901234567,74.62777777777775,0)" xlink:href="#an"/><use transform="matrix(0.06234567901234567,0,0,0.06234567901234567,87.09691358024688,0)" xlink:href="#ao"/><use transform="matrix(0.06234567901234567,0,0,0.06234567901234567,92.02222222222218,0)" xlink:href="#ap"/><use transform="matrix(0.06234567901234567,0,0,0.06234567901234567,98.25679012345675,0)" xlink:href="#aA"/><use transform="matrix(0.06234567901234567,0,0,0.06234567901234567,110.72592592592588,0)" xlink:href="#al"/><use transform="matrix(0.06234567901234567,0,0,0.06234567901234567,123.19506172839502,0)" xlink:href="#av"/><use transform="matrix(0.06234567901234567,0,0,0.06234567901234567,134.41728395061725,0)" xlink:href="#an"/><use transform="matrix(0.06234567901234567,0,0,0.06234567901234567,146.8864197530864,0)" xlink:href="#ao"/><use transform="matrix(0.06234567901234567,0,0,0.06234567901234567,151.8117283950617,0)" xlink:href="#ah"/><use transform="matrix(0.06234567901234567,0,0,0.06234567901234567,164.65493827160492,0)" xlink:href="#aq"/><use transform="matrix(0.06234567901234567,0,0,0.06234567901234567,169.58024691358023,0)" xlink:href="#aj"/><use transform="matrix(0.06234567901234567,0,0,0.06234567901234567,188.22160493827158,0)" xlink:href="#ai"/><use transform="matrix(0.06234567901234567,0,0,0.06234567901234567,200.69074074074072,0)" xlink:href="#ar"/><use transform="matrix(0.06234567901234567,0,0,0.06234567901234567,211.91296296296295,0)" xlink:href="#as"/><use transform="matrix(0.06234567901234567,0,0,0.06234567901234567,218.1475308641975,0)" xlink:href="#an"/><use transform="matrix(0.06234567901234567,0,0,0.06234567901234567,230.61666666666665,0)" xlink:href="#aj"/><use transform="matrix(0.06234567901234567,0,0,0.06234567901234567,249.258024691358,0)" xlink:href="#ak"/></g><path d="M68-38c1 34 0 65-14 84H32c9-13 17-26 17-46H33v-38h35" id="aB"/><g id="d"><use transform="matrix(0.04999999999999998,0,0,0.04999999999999998,0,0)" xlink:href="#at"/><use transform="matrix(0.04999999999999998,0,0,0.04999999999999998,4.999999999999998,0)" xlink:href="#at"/><use transform="matrix(0.04999999999999998,0,0,0.04999999999999998,9.999999999999996,0)" xlink:href="#au"/><use transform="matrix(0.04999999999999998,0,0,0.04999999999999998,21.999999999999993,0)" xlink:href="#ak"/><use transform="matrix(0.04999999999999998,0,0,0.04999999999999998,31.99999999999999,0)" xlink:href="#al"/><use transform="matrix(0.04999999999999998,0,0,0.04999999999999998,41.999999999999986,0)" xlink:href="#av"/><use transform="matrix(0.04999999999999998,0,0,0.04999999999999998,50.999999999999986,0)" xlink:href="#aw"/><use transform="matrix(0.04999999999999998,0,0,0.04999999999999998,60.99999999999999,0)" xlink:href="#ax"/><use transform="matrix(0.04999999999999998,0,0,0.04999999999999998,73.94999999999999,0)" xlink:href="#an"/><use transform="matrix(0.04999999999999998,0,0,0.04999999999999998,83.94999999999999,0)" xlink:href="#ay"/><use transform="matrix(0.04999999999999998,0,0,0.04999999999999998,93.94999999999999,0)" xlink:href="#al"/><use transform="matrix(0.04999999999999998,0,0,0.04999999999999998,103.94999999999999,0)" xlink:href="#ar"/><use transform="matrix(0.04999999999999998,0,0,0.04999999999999998,112.94999999999999,0)" xlink:href="#az"/><use transform="matrix(0.04999999999999998,0,0,0.04999999999999998,117.94999999999997,0)" xlink:href="#az"/><use transform="matrix(0.04999999999999998,0,0,0.04999999999999998,122.94999999999997,0)" xlink:href="#aB"/></g><path d="M209 0H11v-25l151-195H24v-28h176v25L50-27h159V0" id="aC"/><g id="e"><use transform="matrix(0.04999999999999998,0,0,0.04999999999999998,0,0)" xlink:href="#at"/><use transform="matrix(0.04999999999999998,0,0,0.04999999999999998,4.999999999999998,0)" xlink:href="#at"/><use transform="matrix(0.04999999999999998,0,0,0.04999999999999998,9.999999999999996,0)" xlink:href="#ah"/><use transform="matrix(0.04999999999999998,0,0,0.04999999999999998,20.29999999999999,0)" xlink:href="#aq"/><use transform="matrix(0.04999999999999998,0,0,0.04999999999999998,24.24999999999999,0)" xlink:href="#aj"/><use transform="matrix(0.04999999999999998,0,0,0.04999999999999998,39.19999999999998,0)" xlink:href="#ai"/><use transform="matrix(0.04999999999999998,0,0,0.04999999999999998,49.199999999999974,0)" xlink:href="#aC"/><use transform="matrix(0.04999999999999998,0,0,0.04999999999999998,60.14999999999997,0)" xlink:href="#al"/><use transform="matrix(0.04999999999999998,0,0,0.04999999999999998,70.14999999999996,0)" xlink:href="#ay"/><use transform="matrix(0.04999999999999998,0,0,0.04999999999999998,80.14999999999996,0)" xlink:href="#ai"/><use transform="matrix(0.04999999999999998,0,0,0.04999999999999998,90.14999999999996,0)" xlink:href="#az"/><use transform="matrix(0.04999999999999998,0,0,0.04999999999999998,95.14999999999996,0)" xlink:href="#az"/></g><path d="M30-248c118-7 216 8 213 122C240-48 200 0 122 0H30v-248zM63-27c89 8 146-16 146-99s-60-101-146-95v194" id="aD"/><g id="f"><use transform="matrix(0.06234567901234567,0,0,0.06234567901234567,0,0)" xlink:href="#ah"/><use transform="matrix(0.06234567901234567,0,0,0.06234567901234567,11.159876543209876,0)" xlink:href="#ai"/><use transform="matrix(0.06234567901234567,0,0,0.06234567901234567,23.62901234567901,0)" xlink:href="#aj"/><use transform="matrix(0.06234567901234567,0,0,0.06234567901234567,42.27037037037036,0)" xlink:href="#ak"/><use transform="matrix(0.06234567901234567,0,0,0.06234567901234567,54.73950617283949,0)" xlink:href="#al"/><use transform="matrix(0.06234567901234567,0,0,0.06234567901234567,67.20864197530862,0)" xlink:href="#am"/><use transform="matrix(0.06234567901234567,0,0,0.06234567901234567,74.62777777777775,0)" xlink:href="#an"/><use transform="matrix(0.06234567901234567,0,0,0.06234567901234567,87.09691358024688,0)" xlink:href="#ao"/><use transform="matrix(0.06234567901234567,0,0,0.06234567901234567,92.02222222222218,0)" xlink:href="#ap"/><use transform="matrix(0.06234567901234567,0,0,0.06234567901234567,98.25679012345675,0)" xlink:href="#aA"/><use transform="matrix(0.06234567901234567,0,0,0.06234567901234567,110.72592592592588,0)" xlink:href="#al"/><use transform="matrix(0.06234567901234567,0,0,0.06234567901234567,123.19506172839502,0)" xlink:href="#av"/><use transform="matrix(0.06234567901234567,0,0,0.06234567901234567,134.41728395061725,0)" xlink:href="#an"/><use transform="matrix(0.06234567901234567,0,0,0.06234567901234567,146.8864197530864,0)" xlink:href="#ao"/><use transform="matrix(0.06234567901234567,0,0,0.06234567901234567,151.8117283950617,0)" xlink:href="#aD"/><use transform="matrix(0.06234567901234567,0,0,0.06234567901234567,167.95925925925923,0)" xlink:href="#an"/><use transform="matrix(0.06234567901234567,0,0,0.06234567901234567,180.42839506172837,0)" xlink:href="#as"/><use transform="matrix(0.06234567901234567,0,0,0.06234567901234567,186.66296296296292,0)" xlink:href="#ai"/></g><path d="M179-190L93 31C79 59 56 82 12 73V49c39 6 53-20 64-50L1-190h34L92-34l54-156h33" id="aE"/><g id="g"><use transform="matrix(0.04999999999999998,0,0,0.04999999999999998,0,0)" xlink:href="#at"/><use transform="matrix(0.04999999999999998,0,0,0.04999999999999998,4.999999999999998,0)" xlink:href="#at"/><use transform="matrix(0.04999999999999998,0,0,0.04999999999999998,9.999999999999996,0)" xlink:href="#au"/><use transform="matrix(0.04999999999999998,0,0,0.04999999999999998,21.999999999999993,0)" xlink:href="#ak"/><use transform="matrix(0.04999999999999998,0,0,0.04999999999999998,31.99999999999999,0)" xlink:href="#al"/><use transform="matrix(0.04999999999999998,0,0,0.04999999999999998,41.999999999999986,0)" xlink:href="#av"/><use transform="matrix(0.04999999999999998,0,0,0.04999999999999998,50.999999999999986,0)" xlink:href="#aw"/><use transform="matrix(0.04999999999999998,0,0,0.04999999999999998,60.99999999999999,0)" xlink:href="#aD"/><use transform="matrix(0.04999999999999998,0,0,0.04999999999999998,73.94999999999999,0)" xlink:href="#an"/><use transform="matrix(0.04999999999999998,0,0,0.04999999999999998,83.94999999999999,0)" xlink:href="#aE"/><use transform="matrix(0.04999999999999998,0,0,0.04999999999999998,92.94999999999999,0)" xlink:href="#ar"/><use transform="matrix(0.04999999999999998,0,0,0.04999999999999998,101.94999999999999,0)" xlink:href="#az"/><use transform="matrix(0.04999999999999998,0,0,0.04999999999999998,106.94999999999999,0)" xlink:href="#az"/><use transform="matrix(0.04999999999999998,0,0,0.04999999999999998,111.94999999999999,0)" xlink:href="#aB"/></g><path d="M205 0l-28-72H64L36 0H1l101-248h38L239 0h-34zm-38-99l-47-123c-12 45-31 82-46 123h93" id="aF"/><path d="M85-194c31 0 48 13 60 33l-1-100h32l1 261h-30c-2-10 0-23-3-31C134-8 116 4 85 4 32 4 16-35 15-94c0-66 23-100 70-100zm9 24c-40 0-46 34-46 75 0 40 6 74 45 74 42 0 51-32 51-76 0-42-9-74-50-73" id="aG"/><g id="h"><use transform="matrix(0.06234567901234567,0,0,0.06234567901234567,0,0)" xlink:href="#ah"/><use transform="matrix(0.06234567901234567,0,0,0.06234567901234567,11.159876543209876,0)" xlink:href="#ai"/><use transform="matrix(0.06234567901234567,0,0,0.06234567901234567,23.62901234567901,0)" xlink:href="#aj"/><use transform="matrix(0.06234567901234567,0,0,0.06234567901234567,42.27037037037036,0)" xlink:href="#ak"/><use transform="matrix(0.06234567901234567,0,0,0.06234567901234567,54.73950617283949,0)" xlink:href="#al"/><use transform="matrix(0.06234567901234567,0,0,0.06234567901234567,67.20864197530862,0)" xlink:href="#am"/><use transform="matrix(0.06234567901234567,0,0,0.06234567901234567,74.62777777777775,0)" xlink:href="#an"/><use transform="matrix(0.06234567901234567,0,0,0.06234567901234567,87.09691358024688,0)" xlink:href="#ao"/><use transform="matrix(0.06234567901234567,0,0,0.06234567901234567,92.02222222222218,0)" xlink:href="#ap"/><use transform="matrix(0.06234567901234567,0,0,0.06234567901234567,98.25679012345675,0)" xlink:href="#aD"/><use transform="matrix(0.06234567901234567,0,0,0.06234567901234567,114.40432098765427,0)" xlink:href="#an"/><use transform="matrix(0.06234567901234567,0,0,0.06234567901234567,126.87345679012341,0)" xlink:href="#as"/><use transform="matrix(0.06234567901234567,0,0,0.06234567901234567,133.10802469135797,0)" xlink:href="#ai"/><use transform="matrix(0.06234567901234567,0,0,0.06234567901234567,145.5771604938271,0)" xlink:href="#aF"/><use transform="matrix(0.06234567901234567,0,0,0.06234567901234567,160.54012345679007,0)" xlink:href="#ay"/><use transform="matrix(0.06234567901234567,0,0,0.06234567901234567,173.0092592592592,0)" xlink:href="#aG"/><use transform="matrix(0.06234567901234567,0,0,0.06234567901234567,185.47839506172835,0)" xlink:href="#ah"/><use transform="matrix(0.06234567901234567,0,0,0.06234567901234567,198.32160493827158,0)" xlink:href="#aq"/><use transform="matrix(0.06234567901234567,0,0,0.06234567901234567,203.24691358024688,0)" xlink:href="#aj"/><use transform="matrix(0.06234567901234567,0,0,0.06234567901234567,221.88827160493824,0)" xlink:href="#ai"/></g><path d="M212-179c-10-28-35-45-73-45-59 0-87 40-87 99 0 60 29 101 89 101 43 0 62-24 78-52l27 14C228-24 195 4 139 4 59 4 22-46 18-125c-6-104 99-153 187-111 19 9 31 26 39 46" id="aH"/><g id="i"><use transform="matrix(0.04999999999999998,0,0,0.04999999999999998,0,0)" xlink:href="#at"/><use transform="matrix(0.04999999999999998,0,0,0.04999999999999998,4.999999999999998,0)" xlink:href="#at"/><use transform="matrix(0.04999999999999998,0,0,0.04999999999999998,9.999999999999996,0)" xlink:href="#aH"/><use transform="matrix(0.04999999999999998,0,0,0.04999999999999998,22.949999999999992,0)" xlink:href="#an"/><use transform="matrix(0.04999999999999998,0,0,0.04999999999999998,32.94999999999999,0)" xlink:href="#ao"/><use transform="matrix(0.04999999999999998,0,0,0.04999999999999998,36.899999999999984,0)" xlink:href="#ai"/><use transform="matrix(0.04999999999999998,0,0,0.04999999999999998,46.89999999999998,0)" xlink:href="#ay"/><use transform="matrix(0.04999999999999998,0,0,0.04999999999999998,56.89999999999998,0)" xlink:href="#aG"/><use transform="matrix(0.04999999999999998,0,0,0.04999999999999998,66.89999999999998,0)" xlink:href="#an"/><use transform="matrix(0.04999999999999998,0,0,0.04999999999999998,76.89999999999998,0)" xlink:href="#am"/><use transform="matrix(0.04999999999999998,0,0,0.04999999999999998,82.84999999999998,0)" xlink:href="#az"/><use transform="matrix(0.04999999999999998,0,0,0.04999999999999998,87.84999999999998,0)" xlink:href="#az"/><use transform="matrix(0.04999999999999998,0,0,0.04999999999999998,92.84999999999998,0)" xlink:href="#aB"/></g><path d="M33 0v-248h34V0H33" id="aI"/><path d="M185-189c-5-48-123-54-124 2 14 75 158 14 163 119 3 78-121 87-175 55-17-10-28-26-33-46l33-7c5 56 141 63 141-1 0-78-155-14-162-118-5-82 145-84 179-34 5 7 8 16 11 25" id="aJ"/><path d="M140-251c81 0 123 46 123 126C263-46 219 4 140 4 59 4 17-45 17-125s42-126 123-126zm0 227c63 0 89-41 89-101s-29-99-89-99c-61 0-89 39-89 99S79-25 140-24" id="aK"/><g id="j"><use transform="matrix(0.04999999999999998,0,0,0.04999999999999998,0,0)" xlink:href="#aI"/><use transform="matrix(0.04999999999999998,0,0,0.04999999999999998,4.999999999999998,0)" xlink:href="#aJ"/><use transform="matrix(0.04999999999999998,0,0,0.04999999999999998,16.999999999999993,0)" xlink:href="#aK"/></g><path d="M101-234c-31-9-42 10-38 44h38v23H63V0H32v-167H5v-23h27c-7-52 17-82 69-68v24" id="aL"/><g id="k"><use transform="matrix(0.04999999999999998,0,0,0.04999999999999998,0,0)" xlink:href="#aL"/><use transform="matrix(0.04999999999999998,0,0,0.04999999999999998,4.999999999999998,0)" xlink:href="#aq"/><use transform="matrix(0.04999999999999998,0,0,0.04999999999999998,8.949999999999996,0)" xlink:href="#ai"/><use transform="matrix(0.04999999999999998,0,0,0.04999999999999998,18.949999999999992,0)" xlink:href="#ao"/><use transform="matrix(0.04999999999999998,0,0,0.04999999999999998,22.89999999999999,0)" xlink:href="#aG"/><use transform="matrix(0.04999999999999998,0,0,0.04999999999999998,32.89999999999999,0)" xlink:href="#ar"/></g><g id="l"><use transform="matrix(0.06234567901234567,0,0,0.06234567901234567,0,0)" xlink:href="#ah"/><use transform="matrix(0.06234567901234567,0,0,0.06234567901234567,11.159876543209876,0)" xlink:href="#ai"/><use transform="matrix(0.06234567901234567,0,0,0.06234567901234567,23.62901234567901,0)" xlink:href="#aj"/><use transform="matrix(0.06234567901234567,0,0,0.06234567901234567,42.27037037037036,0)" xlink:href="#ak"/><use transform="matrix(0.06234567901234567,0,0,0.06234567901234567,54.73950617283949,0)" xlink:href="#al"/><use transform="matrix(0.06234567901234567,0,0,0.06234567901234567,67.20864197530862,0)" xlink:href="#am"/><use transform="matrix(0.06234567901234567,0,0,0.06234567901234567,74.62777777777775,0)" xlink:href="#an"/><use transform="matrix(0.06234567901234567,0,0,0.06234567901234567,87.09691358024688,0)" xlink:href="#ao"/><use transform="matrix(0.06234567901234567,0,0,0.06234567901234567,92.02222222222218,0)" xlink:href="#ap"/><use transform="matrix(0.06234567901234567,0,0,0.06234567901234567,98.25679012345675,0)" xlink:href="#aD"/><use transform="matrix(0.06234567901234567,0,0,0.06234567901234567,114.40432098765427,0)" xlink:href="#an"/><use transform="matrix(0.06234567901234567,0,0,0.06234567901234567,126.87345679012341,0)" xlink:href="#as"/><use transform="matrix(0.06234567901234567,0,0,0.06234567901234567,133.10802469135797,0)" xlink:href="#ai"/></g><g id="m"><use transform="matrix(0.06234567901234567,0,0,0.06234567901234567,0,0)" xlink:href="#ah"/><use transform="matrix(0.06234567901234567,0,0,0.06234567901234567,11.159876543209876,0)" xlink:href="#ai"/><use transform="matrix(0.06234567901234567,0,0,0.06234567901234567,23.62901234567901,0)" xlink:href="#aj"/><use transform="matrix(0.06234567901234567,0,0,0.06234567901234567,42.27037037037036,0)" xlink:href="#ak"/><use transform="matrix(0.06234567901234567,0,0,0.06234567901234567,54.73950617283949,0)" xlink:href="#al"/><use transform="matrix(0.06234567901234567,0,0,0.06234567901234567,67.20864197530862,0)" xlink:href="#am"/><use transform="matrix(0.06234567901234567,0,0,0.06234567901234567,74.62777777777775,0)" xlink:href="#an"/><use transform="matrix(0.06234567901234567,0,0,0.06234567901234567,87.09691358024688,0)" xlink:href="#ao"/><use transform="matrix(0.06234567901234567,0,0,0.06234567901234567,92.02222222222218,0)" xlink:href="#ap"/><use transform="matrix(0.06234567901234567,0,0,0.06234567901234567,98.25679012345675,0)" xlink:href="#au"/><use transform="matrix(0.06234567901234567,0,0,0.06234567901234567,113.21975308641971,0)" xlink:href="#ak"/><use transform="matrix(0.06234567901234567,0,0,0.06234567901234567,125.68888888888884,0)" xlink:href="#al"/><use transform="matrix(0.06234567901234567,0,0,0.06234567901234567,138.15802469135798,0)" xlink:href="#av"/><use transform="matrix(0.06234567901234567,0,0,0.06234567901234567,149.3802469135802,0)" xlink:href="#aw"/><use transform="matrix(0.06234567901234567,0,0,0.06234567901234567,161.84938271604935,0)" xlink:href="#aD"/><use transform="matrix(0.06234567901234567,0,0,0.06234567901234567,177.99691358024688,0)" xlink:href="#an"/><use transform="matrix(0.06234567901234567,0,0,0.06234567901234567,190.46604938271602,0)" xlink:href="#aE"/><use transform="matrix(0.06234567901234567,0,0,0.06234567901234567,201.68827160493825,0)" xlink:href="#ar"/></g><g id="n"><use transform="matrix(0.04999999999999998,0,0,0.04999999999999998,0,0)" xlink:href="#at"/><use transform="matrix(0.04999999999999998,0,0,0.04999999999999998,4.999999999999998,0)" xlink:href="#at"/><use transform="matrix(0.04999999999999998,0,0,0.04999999999999998,9.999999999999996,0)" xlink:href="#au"/><use transform="matrix(0.04999999999999998,0,0,0.04999999999999998,21.999999999999993,0)" xlink:href="#ak"/><use transform="matrix(0.04999999999999998,0,0,0.04999999999999998,31.99999999999999,0)" xlink:href="#al"/><use transform="matrix(0.04999999999999998,0,0,0.04999999999999998,41.999999999999986,0)" xlink:href="#av"/><use transform="matrix(0.04999999999999998,0,0,0.04999999999999998,50.999999999999986,0)" xlink:href="#aw"/><use transform="matrix(0.04999999999999998,0,0,0.04999999999999998,60.99999999999999,0)" xlink:href="#aD"/><use transform="matrix(0.04999999999999998,0,0,0.04999999999999998,73.94999999999999,0)" xlink:href="#an"/><use transform="matrix(0.04999999999999998,0,0,0.04999999999999998,83.94999999999999,0)" xlink:href="#aE"/><use transform="matrix(0.04999999999999998,0,0,0.04999999999999998,92.94999999999999,0)" xlink:href="#ar"/><use transform="matrix(0.04999999999999998,0,0,0.04999999999999998,101.94999999999999,0)" xlink:href="#az"/><use transform="matrix(0.04999999999999998,0,0,0.04999999999999998,106.94999999999999,0)" xlink:href="#az"/></g><path d="M177-190C167-65 218 103 67 71c-23-6-38-20-44-43l32-5c15 47 100 32 89-28v-30C133-14 115 1 83 1 29 1 15-40 15-95c0-56 16-97 71-98 29-1 48 16 59 35 1-10 0-23 2-32h30zM94-22c36 0 50-32 50-73 0-42-14-75-50-75-39 0-46 34-46 75s6 73 46 73" id="aM"/><g id="o"><use transform="matrix(0.05,0,0,0.05,0,0)" xlink:href="#aM"/><use transform="matrix(0.05,0,0,0.05,10,0)" xlink:href="#ai"/><use transform="matrix(0.05,0,0,0.05,20,0)" xlink:href="#as"/><use transform="matrix(0.05,0,0,0.05,25,0)" xlink:href="#au"/><use transform="matrix(0.05,0,0,0.05,37,0)" xlink:href="#ak"/><use transform="matrix(0.05,0,0,0.05,47,0)" xlink:href="#al"/><use transform="matrix(0.05,0,0,0.05,57,0)" xlink:href="#av"/><use transform="matrix(0.05,0,0,0.05,66,0)" xlink:href="#aw"/></g><path d="M206 0h-36l-40-164L89 0H53L-1-190h32L70-26l43-164h34l41 164 42-164h31" id="aN"/><g id="p"><use transform="matrix(0.05,0,0,0.05,0,0)" xlink:href="#aN"/><use transform="matrix(0.05,0,0,0.05,12.950000000000001,0)" xlink:href="#aq"/><use transform="matrix(0.05,0,0,0.05,16.900000000000002,0)" xlink:href="#as"/><use transform="matrix(0.05,0,0,0.05,21.900000000000002,0)" xlink:href="#aw"/><use transform="matrix(0.05,0,0,0.05,31.900000000000002,0)" xlink:href="#aC"/><use transform="matrix(0.05,0,0,0.05,42.85,0)" xlink:href="#al"/><use transform="matrix(0.05,0,0,0.05,52.85,0)" xlink:href="#ay"/><use transform="matrix(0.05,0,0,0.05,62.85,0)" xlink:href="#ai"/></g><g id="q"><use transform="matrix(0.05,0,0,0.05,0,0)" xlink:href="#aN"/><use transform="matrix(0.05,0,0,0.05,12.950000000000001,0)" xlink:href="#aq"/><use transform="matrix(0.05,0,0,0.05,16.900000000000002,0)" xlink:href="#as"/><use transform="matrix(0.05,0,0,0.05,21.900000000000002,0)" xlink:href="#aw"/><use transform="matrix(0.05,0,0,0.05,31.900000000000002,0)" xlink:href="#aH"/><use transform="matrix(0.05,0,0,0.05,44.85,0)" xlink:href="#an"/><use transform="matrix(0.05,0,0,0.05,54.85,0)" xlink:href="#ao"/><use transform="matrix(0.05,0,0,0.05,58.800000000000004,0)" xlink:href="#ai"/><use transform="matrix(0.05,0,0,0.05,68.80000000000001,0)" xlink:href="#ay"/><use transform="matrix(0.05,0,0,0.05,78.80000000000001,0)" xlink:href="#aG"/><use transform="matrix(0.05,0,0,0.05,88.80000000000001,0)" xlink:href="#an"/><use transform="matrix(0.05,0,0,0.05,98.80000000000001,0)" xlink:href="#am"/></g><g id="r"><use transform="matrix(0.05,0,0,0.05,0,0)" xlink:href="#aM"/><use transform="matrix(0.05,0,0,0.05,10,0)" xlink:href="#ai"/><use transform="matrix(0.05,0,0,0.05,20,0)" xlink:href="#as"/><use transform="matrix(0.05,0,0,0.05,25,0)" xlink:href="#aD"/><use transform="matrix(0.05,0,0,0.05,37.95,0)" xlink:href="#an"/><use transform="matrix(0.05,0,0,0.05,47.95,0)" xlink:href="#as"/><use transform="matrix(0.05,0,0,0.05,52.95,0)" xlink:href="#ai"/></g><g id="s"><use transform="matrix(0.05,0,0,0.05,0,0)" xlink:href="#aN"/><use transform="matrix(0.05,0,0,0.05,12.950000000000001,0)" xlink:href="#aq"/><use transform="matrix(0.05,0,0,0.05,16.900000000000002,0)" xlink:href="#as"/><use transform="matrix(0.05,0,0,0.05,21.900000000000002,0)" xlink:href="#aw"/><use transform="matrix(0.05,0,0,0.05,31.900000000000002,0)" xlink:href="#ah"/><use transform="matrix(0.05,0,0,0.05,42.2,0)" xlink:href="#aq"/><use transform="matrix(0.05,0,0,0.05,46.150000000000006,0)" xlink:href="#aj"/><use transform="matrix(0.05,0,0,0.05,61.1,0)" xlink:href="#ai"/></g><path fill="#c92d39" d="M205 0l-28-72H64L36 0H1l101-248h38L239 0h-34zm-38-99l-47-123c-12 45-31 82-46 123h93" id="aO"/><path fill="#c92d39" d="M115-194c53 0 69 39 70 98 0 66-23 100-70 100C84 3 66-7 56-30L54 0H23l1-261h32v101c10-23 28-34 59-34zm-8 174c40 0 45-34 45-75 0-40-5-75-45-74-42 0-51 32-51 76 0 43 10 73 51 73" id="aP"/><path fill="#c92d39" d="M135-143c-3-34-86-38-87 0 15 53 115 12 119 90S17 21 10-45l28-5c4 36 97 45 98 0-10-56-113-15-118-90-4-57 82-63 122-42 12 7 21 19 24 35" id="aQ"/><path fill="#c92d39" d="M100-194c62-1 85 37 85 99 1 63-27 99-86 99S16-35 15-95c0-66 28-99 85-99zM99-20c44 1 53-31 53-75 0-43-8-75-51-75s-53 32-53 75 10 74 51 75" id="aR"/><path fill="#c92d39" d="M24 0v-261h32V0H24" id="aS"/><path fill="#c92d39" d="M84 4C-5 8 30-112 23-190h32v120c0 31 7 50 39 49 72-2 45-101 50-169h31l1 190h-30c-1-10 1-25-2-33-11 22-28 36-60 37" id="aT"/><path fill="#c92d39" d="M59-47c-2 24 18 29 38 22v24C64 9 27 4 27-40v-127H5v-23h24l9-43h21v43h35v23H59v120" id="aU"/><path fill="#c92d39" d="M100-194c63 0 86 42 84 106H49c0 40 14 67 53 68 26 1 43-12 49-29l28 8c-11 28-37 45-77 45C44 4 14-33 15-96c1-61 26-98 85-98zm52 81c6-60-76-77-97-28-3 7-6 17-6 28h103" id="aV"/><g id="t"><use transform="matrix(0.07469135802469135,0,0,0.07469135802469135,0,0)" xlink:href="#aO"/><use transform="matrix(0.07469135802469135,0,0,0.07469135802469135,17.925925925925924,0)" xlink:href="#aP"/><use transform="matrix(0.07469135802469135,0,0,0.07469135802469135,32.86419753086419,0)" xlink:href="#aQ"/><use transform="matrix(0.07469135802469135,0,0,0.07469135802469135,46.30864197530863,0)" xlink:href="#aR"/><use transform="matrix(0.07469135802469135,0,0,0.07469135802469135,61.2469135802469,0)" xlink:href="#aS"/><use transform="matrix(0.07469135802469135,0,0,0.07469135802469135,67.1475308641975,0)" xlink:href="#aT"/><use transform="matrix(0.07469135802469135,0,0,0.07469135802469135,82.08580246913577,0)" xlink:href="#aU"/><use transform="matrix(0.07469135802469135,0,0,0.07469135802469135,89.55493827160491,0)" xlink:href="#aV"/></g><path fill="#c92d39" d="M127-220V0H93v-220H8v-28h204v28h-85" id="aW"/><path fill="#c92d39" d="M24-231v-30h32v30H24zM24 0v-190h32V0H24" id="aX"/><path fill="#c92d39" d="M210-169c-67 3-38 105-44 169h-31v-121c0-29-5-50-35-48C34-165 62-65 56 0H25l-1-190h30c1 10-1 24 2 32 10-44 99-50 107 0 11-21 27-35 58-36 85-2 47 119 55 194h-31v-121c0-29-5-49-35-48" id="aY"/><g id="u"><use transform="matrix(0.07469135802469135,0,0,0.07469135802469135,0,0)" xlink:href="#aW"/><use transform="matrix(0.07469135802469135,0,0,0.07469135802469135,15.386419753086416,0)" xlink:href="#aX"/><use transform="matrix(0.07469135802469135,0,0,0.07469135802469135,21.28703703703703,0)" xlink:href="#aY"/><use transform="matrix(0.07469135802469135,0,0,0.07469135802469135,43.61975308641975,0)" xlink:href="#aV"/></g><path fill="#c92d39" d="M16-82v-28h88v28H16" id="aZ"/><use transform="matrix(0.05617283950617281,0,0,0.05617283950617281,0,0)" xlink:href="#aZ" id="v"/><path fill="#c92d39" d="M141-36C126-15 110 5 73 4 37 3 15-17 15-53c-1-64 63-63 125-63 3-35-9-54-41-54-24 1-41 7-42 31l-33-3c5-37 33-52 76-52 45 0 72 20 72 64v82c-1 20 7 32 28 27v20c-31 9-61-2-59-35zM48-53c0 20 12 33 32 33 41-3 63-29 60-74-43 2-92-5-92 41" id="ba"/><path fill="#c92d39" d="M115-194c55 1 70 41 70 98S169 2 115 4C84 4 66-9 55-30l1 105H24l-1-265h31l2 30c10-21 28-34 59-34zm-8 174c40 0 45-34 45-75s-6-73-45-74c-42 0-51 32-51 76 0 43 10 73 51 73" id="bb"/><g id="w"><use transform="matrix(0.05617283950617281,0,0,0.05617283950617281,0,0)" xlink:href="#aW"/><use transform="matrix(0.05617283950617281,0,0,0.05617283950617281,11.571604938271598,0)" xlink:href="#aX"/><use transform="matrix(0.05617283950617281,0,0,0.05617283950617281,16.00925925925925,0)" xlink:href="#aY"/><use transform="matrix(0.05617283950617281,0,0,0.05617283950617281,32.80493827160492,0)" xlink:href="#aV"/><use transform="matrix(0.05617283950617281,0,0,0.05617283950617281,44.03950617283948,0)" xlink:href="#aQ"/><use transform="matrix(0.05617283950617281,0,0,0.05617283950617281,54.15061728395059,0)" xlink:href="#aU"/><use transform="matrix(0.05617283950617281,0,0,0.05617283950617281,59.767901234567866,0)" xlink:href="#ba"/><use transform="matrix(0.05617283950617281,0,0,0.05617283950617281,71.00246913580243,0)" xlink:href="#aY"/><use transform="matrix(0.05617283950617281,0,0,0.05617283950617281,87.7981481481481,0)" xlink:href="#bb"/></g><path fill="#c92d39" d="M114-163C36-179 61-72 57 0H25l-1-190h30c1 12-1 29 2 39 6-27 23-49 58-41v29" id="bc"/><path fill="#c92d39" d="M106-169C34-169 62-67 57 0H25v-261h32l-1 103c12-21 28-36 61-36 89 0 53 116 60 194h-32v-121c2-32-8-49-39-48" id="bd"/><path fill="#c92d39" d="M96-169c-40 0-48 33-48 73s9 75 48 75c24 0 41-14 43-38l32 2c-6 37-31 61-74 61-59 0-76-41-82-99-10-93 101-131 147-64 4 7 5 14 7 22l-32 3c-4-21-16-35-41-35" id="be"/><g id="x"><use transform="matrix(0.05617283950617281,0,0,0.05617283950617281,0,0)" xlink:href="#ba"/><use transform="matrix(0.05617283950617281,0,0,0.05617283950617281,11.234567901234561,0)" xlink:href="#bc"/><use transform="matrix(0.05617283950617281,0,0,0.05617283950617281,17.919135802469125,0)" xlink:href="#aX"/><use transform="matrix(0.05617283950617281,0,0,0.05617283950617281,22.356790123456776,0)" xlink:href="#aU"/><use transform="matrix(0.05617283950617281,0,0,0.05617283950617281,27.974074074074057,0)" xlink:href="#bd"/><use transform="matrix(0.05617283950617281,0,0,0.05617283950617281,39.208641975308616,0)" xlink:href="#aY"/><use transform="matrix(0.05617283950617281,0,0,0.05617283950617281,56.00432098765428,0)" xlink:href="#aV"/><use transform="matrix(0.05617283950617281,0,0,0.05617283950617281,67.23888888888884,0)" xlink:href="#aU"/><use transform="matrix(0.05617283950617281,0,0,0.05617283950617281,72.85617283950612,0)" xlink:href="#aX"/><use transform="matrix(0.05617283950617281,0,0,0.05617283950617281,77.29382716049376,0)" xlink:href="#be"/></g><path fill="#0c7cba" d="M30 0v-248h33v221h125V0H30" id="bf"/><path fill="#0c7cba" d="M100-194c62-1 85 37 85 99 1 63-27 99-86 99S16-35 15-95c0-66 28-99 85-99zM99-20c44 1 53-31 53-75 0-43-8-75-51-75s-53 32-53 75 10 74 51 75" id="bg"/><path fill="#0c7cba" d="M96-169c-40 0-48 33-48 73s9 75 48 75c24 0 41-14 43-38l32 2c-6 37-31 61-74 61-59 0-76-41-82-99-10-93 101-131 147-64 4 7 5 14 7 22l-32 3c-4-21-16-35-41-35" id="bh"/><path fill="#0c7cba" d="M141-36C126-15 110 5 73 4 37 3 15-17 15-53c-1-64 63-63 125-63 3-35-9-54-41-54-24 1-41 7-42 31l-33-3c5-37 33-52 76-52 45 0 72 20 72 64v82c-1 20 7 32 28 27v20c-31 9-61-2-59-35zM48-53c0 20 12 33 32 33 41-3 63-29 60-74-43 2-92-5-92 41" id="bi"/><path fill="#0c7cba" d="M24 0v-261h32V0H24" id="bj"/><g id="y"><use transform="matrix(0.07469135802469135,0,0,0.07469135802469135,0,0)" xlink:href="#bf"/><use transform="matrix(0.07469135802469135,0,0,0.07469135802469135,14.938271604938269,0)" xlink:href="#bg"/><use transform="matrix(0.07469135802469135,0,0,0.07469135802469135,29.876543209876537,0)" xlink:href="#bh"/><use transform="matrix(0.07469135802469135,0,0,0.07469135802469135,43.32098765432098,0)" xlink:href="#bi"/><use transform="matrix(0.07469135802469135,0,0,0.07469135802469135,58.25925925925925,0)" xlink:href="#bj"/></g><path fill="#0c7cba" d="M127-220V0H93v-220H8v-28h204v28h-85" id="bk"/><path fill="#0c7cba" d="M24-231v-30h32v30H24zM24 0v-190h32V0H24" id="bl"/><path fill="#0c7cba" d="M210-169c-67 3-38 105-44 169h-31v-121c0-29-5-50-35-48C34-165 62-65 56 0H25l-1-190h30c1 10-1 24 2 32 10-44 99-50 107 0 11-21 27-35 58-36 85-2 47 119 55 194h-31v-121c0-29-5-49-35-48" id="bm"/><path fill="#0c7cba" d="M100-194c63 0 86 42 84 106H49c0 40 14 67 53 68 26 1 43-12 49-29l28 8c-11 28-37 45-77 45C44 4 14-33 15-96c1-61 26-98 85-98zm52 81c6-60-76-77-97-28-3 7-6 17-6 28h103" id="bn"/><g id="z"><use transform="matrix(0.07469135802469135,0,0,0.07469135802469135,0,0)" xlink:href="#bk"/><use transform="matrix(0.07469135802469135,0,0,0.07469135802469135,15.386419753086416,0)" xlink:href="#bl"/><use transform="matrix(0.07469135802469135,0,0,0.07469135802469135,21.28703703703703,0)" xlink:href="#bm"/><use transform="matrix(0.07469135802469135,0,0,0.07469135802469135,43.61975308641975,0)" xlink:href="#bn"/></g><path fill="#0c7cba" d="M16-82v-28h88v28H16" id="bo"/><use transform="matrix(0.05617283950617281,0,0,0.05617283950617281,0,0)" xlink:href="#bo" id="A"/><path fill="#0c7cba" d="M30-248c118-7 216 8 213 122C240-48 200 0 122 0H30v-248zM63-27c89 8 146-16 146-99s-60-101-146-95v194" id="bp"/><path fill="#0c7cba" d="M59-47c-2 24 18 29 38 22v24C64 9 27 4 27-40v-127H5v-23h24l9-43h21v43h35v23H59v120" id="bq"/><g id="B"><use transform="matrix(0.05617283950617281,0,0,0.05617283950617281,0,0)" xlink:href="#bp"/><use transform="matrix(0.05617283950617281,0,0,0.05617283950617281,14.548765432098756,0)" xlink:href="#bi"/><use transform="matrix(0.05617283950617281,0,0,0.05617283950617281,25.783333333333317,0)" xlink:href="#bq"/><use transform="matrix(0.05617283950617281,0,0,0.05617283950617281,31.4006172839506,0)" xlink:href="#bi"/></g><path fill="#0c7cba" d="M135-143c-3-34-86-38-87 0 15 53 115 12 119 90S17 21 10-45l28-5c4 36 97 45 98 0-10-56-113-15-118-90-4-57 82-63 122-42 12 7 21 19 24 35" id="br"/><path fill="#0c7cba" d="M114-163C36-179 61-72 57 0H25l-1-190h30c1 12-1 29 2 39 6-27 23-49 58-41v29" id="bs"/><path fill="#0c7cba" d="M177-190C167-65 218 103 67 71c-23-6-38-20-44-43l32-5c15 47 100 32 89-28v-30C133-14 115 1 83 1 29 1 15-40 15-95c0-56 16-97 71-98 29-1 48 16 59 35 1-10 0-23 2-32h30zM94-22c36 0 50-32 50-73 0-42-14-75-50-75-39 0-46 34-46 75s6 73 46 73" id="bt"/><g id="C"><use transform="matrix(0.05617283950617281,0,0,0.05617283950617281,0,0)" xlink:href="#br"/><use transform="matrix(0.05617283950617281,0,0,0.05617283950617281,10.111111111111105,0)" xlink:href="#bq"/><use transform="matrix(0.05617283950617281,0,0,0.05617283950617281,15.728395061728387,0)" xlink:href="#bg"/><use transform="matrix(0.05617283950617281,0,0,0.05617283950617281,26.962962962962948,0)" xlink:href="#bs"/><use transform="matrix(0.05617283950617281,0,0,0.05617283950617281,33.64753086419751,0)" xlink:href="#bi"/><use transform="matrix(0.05617283950617281,0,0,0.05617283950617281,44.882098765432076,0)" xlink:href="#bt"/><use transform="matrix(0.05617283950617281,0,0,0.05617283950617281,56.11666666666664,0)" xlink:href="#bn"/></g><path fill="#0c7cba" d="M209 0H11v-25l151-195H24v-28h176v25L50-27h159V0" id="bu"/><path fill="#0c7cba" d="M117-194c89-4 53 116 60 194h-32v-121c0-31-8-49-39-48C34-167 62-67 57 0H25l-1-190h30c1 10-1 24 2 32 11-22 29-35 61-36" id="bv"/><g id="D"><use transform="matrix(0.05617283950617281,0,0,0.05617283950617281,0,0)" xlink:href="#bu"/><use transform="matrix(0.05617283950617281,0,0,0.05617283950617281,12.301851851851845,0)" xlink:href="#bg"/><use transform="matrix(0.05617283950617281,0,0,0.05617283950617281,23.536419753086406,0)" xlink:href="#bv"/><use transform="matrix(0.05617283950617281,0,0,0.05617283950617281,34.77098765432097,0)" xlink:href="#bn"/></g><path fill="#0c7cba" d="M108 0H70L1-190h34L89-25l56-165h34" id="bw"/><g id="E"><use transform="matrix(0.05617283950617281,0,0,0.05617283950617281,0,0)" xlink:href="#bh"/><use transform="matrix(0.05617283950617281,0,0,0.05617283950617281,10.111111111111105,0)" xlink:href="#bg"/><use transform="matrix(0.05617283950617281,0,0,0.05617283950617281,21.345679012345666,0)" xlink:href="#bv"/><use transform="matrix(0.05617283950617281,0,0,0.05617283950617281,32.580246913580226,0)" xlink:href="#bw"/><use transform="matrix(0.05617283950617281,0,0,0.05617283950617281,42.69135802469133,0)" xlink:href="#bn"/><use transform="matrix(0.05617283950617281,0,0,0.05617283950617281,53.925925925925895,0)" xlink:href="#bs"/><use transform="matrix(0.05617283950617281,0,0,0.05617283950617281,60.61049382716046,0)" xlink:href="#br"/><use transform="matrix(0.05617283950617281,0,0,0.05617283950617281,70.72160493827157,0)" xlink:href="#bl"/><use transform="matrix(0.05617283950617281,0,0,0.05617283950617281,75.15925925925922,0)" xlink:href="#bg"/><use transform="matrix(0.05617283950617281,0,0,0.05617283950617281,86.39382716049377,0)" xlink:href="#bv"/></g><path fill="#19967d" d="M266 0h-40l-56-210L115 0H75L2-248h35L96-30l15-64 43-154h32l59 218 59-218h35" id="bx"/><path fill="#19967d" d="M141-36C126-15 110 5 73 4 37 3 15-17 15-53c-1-64 63-63 125-63 3-35-9-54-41-54-24 1-41 7-42 31l-33-3c5-37 33-52 76-52 45 0 72 20 72 64v82c-1 20 7 32 28 27v20c-31 9-61-2-59-35zM48-53c0 20 12 33 32 33 41-3 63-29 60-74-43 2-92-5-92 41" id="by"/><path fill="#19967d" d="M24 0v-261h32V0H24" id="bz"/><g id="F"><use transform="matrix(0.07469135802469135,0,0,0.07469135802469135,0,0)" xlink:href="#bx"/><use transform="matrix(0.07469135802469135,0,0,0.07469135802469135,24.34938271604938,0)" xlink:href="#by"/><use transform="matrix(0.07469135802469135,0,0,0.07469135802469135,39.28765432098765,0)" xlink:href="#bz"/><use transform="matrix(0.07469135802469135,0,0,0.07469135802469135,45.188271604938265,0)" xlink:href="#bz"/></g><path fill="#19967d" d="M212-179c-10-28-35-45-73-45-59 0-87 40-87 99 0 60 29 101 89 101 43 0 62-24 78-52l27 14C228-24 195 4 139 4 59 4 22-46 18-125c-6-104 99-153 187-111 19 9 31 26 39 46" id="bA"/><path fill="#19967d" d="M100-194c62-1 85 37 85 99 1 63-27 99-86 99S16-35 15-95c0-66 28-99 85-99zM99-20c44 1 53-31 53-75 0-43-8-75-51-75s-53 32-53 75 10 74 51 75" id="bB"/><path fill="#19967d" d="M96-169c-40 0-48 33-48 73s9 75 48 75c24 0 41-14 43-38l32 2c-6 37-31 61-74 61-59 0-76-41-82-99-10-93 101-131 147-64 4 7 5 14 7 22l-32 3c-4-21-16-35-41-35" id="bC"/><path fill="#19967d" d="M143 0L79-87 56-68V0H24v-261h32v163l83-92h37l-77 82L181 0h-38" id="bD"/><g id="G"><use transform="matrix(0.07469135802469135,0,0,0.07469135802469135,0,0)" xlink:href="#bA"/><use transform="matrix(0.07469135802469135,0,0,0.07469135802469135,19.34506172839506,0)" xlink:href="#bz"/><use transform="matrix(0.07469135802469135,0,0,0.07469135802469135,25.245679012345676,0)" xlink:href="#bB"/><use transform="matrix(0.07469135802469135,0,0,0.07469135802469135,40.18395061728394,0)" xlink:href="#bC"/><use transform="matrix(0.07469135802469135,0,0,0.07469135802469135,53.62839506172838,0)" xlink:href="#bD"/></g><path fill="#19967d" d="M127-220V0H93v-220H8v-28h204v28h-85" id="bE"/><path fill="#19967d" d="M24-231v-30h32v30H24zM24 0v-190h32V0H24" id="bF"/><path fill="#19967d" d="M210-169c-67 3-38 105-44 169h-31v-121c0-29-5-50-35-48C34-165 62-65 56 0H25l-1-190h30c1 10-1 24 2 32 10-44 99-50 107 0 11-21 27-35 58-36 85-2 47 119 55 194h-31v-121c0-29-5-49-35-48" id="bG"/><path fill="#19967d" d="M100-194c63 0 86 42 84 106H49c0 40 14 67 53 68 26 1 43-12 49-29l28 8c-11 28-37 45-77 45C44 4 14-33 15-96c1-61 26-98 85-98zm52 81c6-60-76-77-97-28-3 7-6 17-6 28h103" id="bH"/><g id="H"><use transform="matrix(0.07469135802469135,0,0,0.07469135802469135,0,0)" xlink:href="#bE"/><use transform="matrix(0.07469135802469135,0,0,0.07469135802469135,15.386419753086416,0)" xlink:href="#bF"/><use transform="matrix(0.07469135802469135,0,0,0.07469135802469135,21.28703703703703,0)" xlink:href="#bG"/><use transform="matrix(0.07469135802469135,0,0,0.07469135802469135,43.61975308641975,0)" xlink:href="#bH"/></g><path fill="#19967d" d="M16-82v-28h88v28H16" id="bI"/><use transform="matrix(0.05617283950617281,0,0,0.05617283950617281,0,0)" xlink:href="#bI" id="I"/><path fill="#19967d" d="M117-194c89-4 53 116 60 194h-32v-121c0-31-8-49-39-48C34-167 62-67 57 0H25l-1-190h30c1 10-1 24 2 32 11-22 29-35 61-36" id="bJ"/><path fill="#19967d" d="M85-194c31 0 48 13 60 33l-1-100h32l1 261h-30c-2-10 0-23-3-31C134-8 116 4 85 4 32 4 16-35 15-94c0-66 23-100 70-100zm9 24c-40 0-46 34-46 75 0 40 6 74 45 74 42 0 51-32 51-76 0-42-9-74-50-73" id="bK"/><path fill="#19967d" d="M114-163C36-179 61-72 57 0H25l-1-190h30c1 12-1 29 2 39 6-27 23-49 58-41v29" id="bL"/><g id="J"><use transform="matrix(0.05617283950617281,0,0,0.05617283950617281,0,0)" xlink:href="#bA"/><use transform="matrix(0.05617283950617281,0,0,0.05617283950617281,14.548765432098756,0)" xlink:href="#by"/><use transform="matrix(0.05617283950617281,0,0,0.05617283950617281,25.783333333333317,0)" xlink:href="#bz"/><use transform="matrix(0.05617283950617281,0,0,0.05617283950617281,30.22098765432097,0)" xlink:href="#bH"/><use transform="matrix(0.05617283950617281,0,0,0.05617283950617281,41.45555555555553,0)" xlink:href="#bJ"/><use transform="matrix(0.05617283950617281,0,0,0.05617283950617281,52.69012345679009,0)" xlink:href="#bK"/><use transform="matrix(0.05617283950617281,0,0,0.05617283950617281,63.92469135802465,0)" xlink:href="#by"/><use transform="matrix(0.05617283950617281,0,0,0.05617283950617281,75.15925925925922,0)" xlink:href="#bL"/></g><path fill="#19967d" d="M59-47c-2 24 18 29 38 22v24C64 9 27 4 27-40v-127H5v-23h24l9-43h21v43h35v23H59v120" id="bM"/><path fill="#19967d" d="M106-169C34-169 62-67 57 0H25v-261h32l-1 103c12-21 28-36 61-36 89 0 53 116 60 194h-32v-121c2-32-8-49-39-48" id="bN"/><g id="K"><use transform="matrix(0.05617283950617281,0,0,0.05617283950617281,0,0)" xlink:href="#by"/><use transform="matrix(0.05617283950617281,0,0,0.05617283950617281,11.234567901234561,0)" xlink:href="#bL"/><use transform="matrix(0.05617283950617281,0,0,0.05617283950617281,17.919135802469125,0)" xlink:href="#bF"/><use transform="matrix(0.05617283950617281,0,0,0.05617283950617281,22.356790123456776,0)" xlink:href="#bM"/><use transform="matrix(0.05617283950617281,0,0,0.05617283950617281,27.974074074074057,0)" xlink:href="#bN"/><use transform="matrix(0.05617283950617281,0,0,0.05617283950617281,39.208641975308616,0)" xlink:href="#bG"/><use transform="matrix(0.05617283950617281,0,0,0.05617283950617281,56.00432098765428,0)" xlink:href="#bH"/><use transform="matrix(0.05617283950617281,0,0,0.05617283950617281,67.23888888888884,0)" xlink:href="#bM"/><use transform="matrix(0.05617283950617281,0,0,0.05617283950617281,72.85617283950612,0)" xlink:href="#bF"/><use transform="matrix(0.05617283950617281,0,0,0.05617283950617281,77.29382716049376,0)" xlink:href="#bC"/></g><path fill="#19967d" d="M177-190C167-65 218 103 67 71c-23-6-38-20-44-43l32-5c15 47 100 32 89-28v-30C133-14 115 1 83 1 29 1 15-40 15-95c0-56 16-97 71-98 29-1 48 16 59 35 1-10 0-23 2-32h30zM94-22c36 0 50-32 50-73 0-42-14-75-50-75-39 0-46 34-46 75s6 73 46 73" id="bO"/><path fill="#19967d" d="M135-143c-3-34-86-38-87 0 15 53 115 12 119 90S17 21 10-45l28-5c4 36 97 45 98 0-10-56-113-15-118-90-4-57 82-63 122-42 12 7 21 19 24 35" id="bP"/><g id="L"><use transform="matrix(0.05617283950617281,0,0,0.05617283950617281,0,0)" xlink:href="#bO"/><use transform="matrix(0.05617283950617281,0,0,0.05617283950617281,11.234567901234561,0)" xlink:href="#bH"/><use transform="matrix(0.05617283950617281,0,0,0.05617283950617281,22.469135802469122,0)" xlink:href="#bM"/><use transform="matrix(0.05617283950617281,0,0,0.05617283950617281,28.086419753086403,0)" xlink:href="#bM"/><use transform="matrix(0.05617283950617281,0,0,0.05617283950617281,33.70370370370368,0)" xlink:href="#bH"/><use transform="matrix(0.05617283950617281,0,0,0.05617283950617281,44.938271604938244,0)" xlink:href="#bL"/><use transform="matrix(0.05617283950617281,0,0,0.05617283950617281,51.62283950617281,0)" xlink:href="#bP"/></g><path d="M24-248c93 1 206-16 204 79-1 75-69 88-152 82V0H24v-248zm52 121c47 0 100 7 100-41 0-47-54-39-100-39v80" id="bQ"/><path d="M110-194c64 0 96 36 96 99 0 64-35 99-97 99-61 0-95-36-95-99 0-62 34-99 96-99zm-1 164c35 0 45-28 45-65 0-40-10-65-43-65-34 0-45 26-45 65 0 36 10 65 43 65" id="bR"/><path d="M115-3C79 11 28 4 28-45v-112H4v-33h27l15-45h31v45h36v33H77v99c-1 23 16 31 38 25v30" id="bS"/><path d="M185-48c-13 30-37 53-82 52C43 2 14-33 14-96s30-98 90-98c62 0 83 45 84 108H66c0 31 8 55 39 56 18 0 30-7 34-22zm-45-69c5-46-57-63-70-21-2 6-4 13-4 21h74" id="bT"/><path d="M135-194c87-1 58 113 63 194h-50c-7-57 23-157-34-157-59 0-34 97-39 157H25l-1-190h47c2 12-1 28 3 38 12-26 28-41 61-42" id="bU"/><path d="M25-224v-37h50v37H25zM25 0v-190h50V0H25" id="bV"/><path d="M133-34C117-15 103 5 69 4 32 3 11-16 11-54c-1-60 55-63 116-61 1-26-3-47-28-47-18 1-26 9-28 27l-52-2c7-38 36-58 82-57s74 22 75 68l1 82c-1 14 12 18 25 15v27c-30 8-71 5-69-32zm-48 3c29 0 43-24 42-57-32 0-66-3-65 30 0 17 8 27 23 27" id="bW"/><path d="M25 0v-261h50V0H25" id="bX"/><g id="M"><use transform="matrix(0.11172839506172831,0,0,0.11172839506172831,0,0)" xlink:href="#bQ"/><use transform="matrix(0.11172839506172831,0,0,0.11172839506172831,26.814814814814795,0)" xlink:href="#bR"/><use transform="matrix(0.11172839506172831,0,0,0.11172839506172831,51.283333333333296,0)" xlink:href="#bS"/><use transform="matrix(0.11172839506172831,0,0,0.11172839506172831,64.57901234567896,0)" xlink:href="#bT"/><use transform="matrix(0.11172839506172831,0,0,0.11172839506172831,86.92469135802463,0)" xlink:href="#bU"/><use transform="matrix(0.11172839506172831,0,0,0.11172839506172831,111.39320987654312,0)" xlink:href="#bS"/><use transform="matrix(0.11172839506172831,0,0,0.11172839506172831,124.6888888888888,0)" xlink:href="#bV"/><use transform="matrix(0.11172839506172831,0,0,0.11172839506172831,135.86172839506162,0)" xlink:href="#bW"/><use transform="matrix(0.11172839506172831,0,0,0.11172839506172831,158.2074074074073,0)" xlink:href="#bX"/></g><path d="M136-208V0H84v-208H4v-40h212v40h-80" id="bY"/><path d="M220-157c-53 9-28 100-34 157h-49v-107c1-27-5-49-29-50C55-147 81-57 75 0H25l-1-190h47c2 12-1 28 3 38 10-53 101-56 108 0 13-22 24-43 59-42 82 1 51 116 57 194h-49v-107c-1-25-5-48-29-50" id="bZ"/><path d="M135-194c53 0 70 44 70 98 0 56-19 98-73 100-31 1-45-17-59-34 3 33 2 69 2 105H25l-1-265h48c2 10 0 23 3 31 11-24 29-35 60-35zM114-30c33 0 39-31 40-66 0-38-9-64-40-64-56 0-55 130 0 130" id="ca"/><path d="M135-150c-39-12-60 13-60 57V0H25l-1-190h47c2 13-1 29 3 40 6-28 27-53 61-41v41" id="cb"/><g id="N"><use transform="matrix(0.11172839506172831,0,0,0.11172839506172831,0,0)" xlink:href="#bY"/><use transform="matrix(0.11172839506172831,0,0,0.11172839506172831,21.451851851851835,0)" xlink:href="#bT"/><use transform="matrix(0.11172839506172831,0,0,0.11172839506172831,43.7975308641975,0)" xlink:href="#bZ"/><use transform="matrix(0.11172839506172831,0,0,0.11172839506172831,79.55061728395056,0)" xlink:href="#ca"/><use transform="matrix(0.11172839506172831,0,0,0.11172839506172831,104.01913580246907,0)" xlink:href="#bR"/><use transform="matrix(0.11172839506172831,0,0,0.11172839506172831,128.48765432098756,0)" xlink:href="#cb"/><use transform="matrix(0.11172839506172831,0,0,0.11172839506172831,144.12962962962953,0)" xlink:href="#bW"/><use transform="matrix(0.11172839506172831,0,0,0.11172839506172831,166.4753086419752,0)" xlink:href="#bX"/></g><path d="M24-248c120-7 223 5 221 122C244-46 201 0 124 0H24v-248zM76-40c74 7 117-18 117-86 0-67-45-88-117-82v168" id="cc"/><g id="O"><use transform="matrix(0.11172839506172831,0,0,0.11172839506172831,0,0)" xlink:href="#cc"/><use transform="matrix(0.11172839506172831,0,0,0.11172839506172831,28.937654320987633,0)" xlink:href="#bW"/><use transform="matrix(0.11172839506172831,0,0,0.11172839506172831,51.283333333333296,0)" xlink:href="#bS"/><use transform="matrix(0.11172839506172831,0,0,0.11172839506172831,64.57901234567896,0)" xlink:href="#bW"/></g><path d="M123 10C108 53 80 86 19 72V37c35 8 53-11 59-39L3-190h52l48 148c12-52 28-100 44-148h51" id="cd"/><path d="M137-138c1-29-70-34-71-4 15 46 118 7 119 86 1 83-164 76-172 9l43-7c4 19 20 25 44 25 33 8 57-30 24-41C81-84 22-81 20-136c-2-80 154-74 161-7" id="ce"/><g id="P"><use transform="matrix(0.11172839506172831,0,0,0.11172839506172831,0,0)" xlink:href="#bY"/><use transform="matrix(0.11172839506172831,0,0,0.11172839506172831,21.451851851851835,0)" xlink:href="#cd"/><use transform="matrix(0.11172839506172831,0,0,0.11172839506172831,43.7975308641975,0)" xlink:href="#ca"/><use transform="matrix(0.11172839506172831,0,0,0.11172839506172831,68.266049382716,0)" xlink:href="#bT"/><use transform="matrix(0.11172839506172831,0,0,0.11172839506172831,90.61172839506168,0)" xlink:href="#ce"/></g><path d="M240 0l2-218c-23 76-54 145-80 218h-23L58-218 59 0H30v-248h44l77 211c21-75 51-140 76-211h43V0h-30" id="cf"/><g id="Q"><use transform="matrix(0.06234567901234567,0,0,0.06234567901234567,0,0)" xlink:href="#ah"/><use transform="matrix(0.06234567901234567,0,0,0.06234567901234567,11.159876543209876,0)" xlink:href="#ai"/><use transform="matrix(0.06234567901234567,0,0,0.06234567901234567,23.62901234567901,0)" xlink:href="#aj"/><use transform="matrix(0.06234567901234567,0,0,0.06234567901234567,42.27037037037036,0)" xlink:href="#ak"/><use transform="matrix(0.06234567901234567,0,0,0.06234567901234567,54.73950617283949,0)" xlink:href="#al"/><use transform="matrix(0.06234567901234567,0,0,0.06234567901234567,67.20864197530862,0)" xlink:href="#am"/><use transform="matrix(0.06234567901234567,0,0,0.06234567901234567,74.62777777777775,0)" xlink:href="#an"/><use transform="matrix(0.06234567901234567,0,0,0.06234567901234567,87.09691358024688,0)" xlink:href="#ao"/><use transform="matrix(0.06234567901234567,0,0,0.06234567901234567,92.02222222222218,0)" xlink:href="#ap"/><use transform="matrix(0.06234567901234567,0,0,0.06234567901234567,98.25679012345675,0)" xlink:href="#cf"/><use transform="matrix(0.06234567901234567,0,0,0.06234567901234567,116.89814814814811,0)" xlink:href="#al"/><use transform="matrix(0.06234567901234567,0,0,0.06234567901234567,129.36728395061724,0)" xlink:href="#ay"/><use transform="matrix(0.06234567901234567,0,0,0.06234567901234567,141.83641975308637,0)" xlink:href="#as"/><use transform="matrix(0.06234567901234567,0,0,0.06234567901234567,148.07098765432093,0)" xlink:href="#aw"/><use transform="matrix(0.06234567901234567,0,0,0.06234567901234567,160.54012345679007,0)" xlink:href="#aD"/><use transform="matrix(0.06234567901234567,0,0,0.06234567901234567,176.6876543209876,0)" xlink:href="#an"/><use transform="matrix(0.06234567901234567,0,0,0.06234567901234567,189.15679012345674,0)" xlink:href="#aE"/></g><path d="M137-103V0h-34v-103L8-248h37l75 118 75-118h37" id="cg"/><g id="R"><use transform="matrix(0.06234567901234567,0,0,0.06234567901234567,0,0)" xlink:href="#ah"/><use transform="matrix(0.06234567901234567,0,0,0.06234567901234567,11.159876543209876,0)" xlink:href="#ai"/><use transform="matrix(0.06234567901234567,0,0,0.06234567901234567,23.62901234567901,0)" xlink:href="#aj"/><use transform="matrix(0.06234567901234567,0,0,0.06234567901234567,42.27037037037036,0)" xlink:href="#ak"/><use transform="matrix(0.06234567901234567,0,0,0.06234567901234567,54.73950617283949,0)" xlink:href="#al"/><use transform="matrix(0.06234567901234567,0,0,0.06234567901234567,67.20864197530862,0)" xlink:href="#am"/><use transform="matrix(0.06234567901234567,0,0,0.06234567901234567,74.62777777777775,0)" xlink:href="#an"/><use transform="matrix(0.06234567901234567,0,0,0.06234567901234567,87.09691358024688,0)" xlink:href="#ao"/><use transform="matrix(0.06234567901234567,0,0,0.06234567901234567,92.02222222222218,0)" xlink:href="#ap"/><use transform="matrix(0.06234567901234567,0,0,0.06234567901234567,98.25679012345675,0)" xlink:href="#cg"/><use transform="matrix(0.06234567901234567,0,0,0.06234567901234567,111.1623456790123,0)" xlink:href="#ai"/><use transform="matrix(0.06234567901234567,0,0,0.06234567901234567,123.63148148148144,0)" xlink:href="#an"/><use transform="matrix(0.06234567901234567,0,0,0.06234567901234567,136.10061728395058,0)" xlink:href="#am"/><use transform="matrix(0.06234567901234567,0,0,0.06234567901234567,143.5197530864197,0)" xlink:href="#cf"/><use transform="matrix(0.06234567901234567,0,0,0.06234567901234567,162.16111111111107,0)" xlink:href="#al"/><use transform="matrix(0.06234567901234567,0,0,0.06234567901234567,174.6302469135802,0)" xlink:href="#ay"/><use transform="matrix(0.06234567901234567,0,0,0.06234567901234567,187.09938271604935,0)" xlink:href="#as"/><use transform="matrix(0.06234567901234567,0,0,0.06234567901234567,193.3339506172839,0)" xlink:href="#aw"/></g><g id="S"><use transform="matrix(0.05,0,0,0.05,0,0)" xlink:href="#aM"/><use transform="matrix(0.05,0,0,0.05,10,0)" xlink:href="#ai"/><use transform="matrix(0.05,0,0,0.05,20,0)" xlink:href="#as"/><use transform="matrix(0.05,0,0,0.05,25,0)" xlink:href="#cf"/><use transform="matrix(0.05,0,0,0.05,39.95,0)" xlink:href="#al"/><use transform="matrix(0.05,0,0,0.05,49.95,0)" xlink:href="#ay"/><use transform="matrix(0.05,0,0,0.05,59.95,0)" xlink:href="#as"/><use transform="matrix(0.05,0,0,0.05,64.95,0)" xlink:href="#aw"/><use transform="matrix(0.05,0,0,0.05,74.95,0)" xlink:href="#aD"/><use transform="matrix(0.05,0,0,0.05,87.9,0)" xlink:href="#an"/><use transform="matrix(0.05,0,0,0.05,97.9,0)" xlink:href="#aE"/></g><g id="T"><use transform="matrix(0.05,0,0,0.05,0,0)" xlink:href="#aN"/><use transform="matrix(0.05,0,0,0.05,12.950000000000001,0)" xlink:href="#aq"/><use transform="matrix(0.05,0,0,0.05,16.900000000000002,0)" xlink:href="#as"/><use transform="matrix(0.05,0,0,0.05,21.900000000000002,0)" xlink:href="#aw"/><use transform="matrix(0.05,0,0,0.05,31.900000000000002,0)" xlink:href="#cg"/><use transform="matrix(0.05,0,0,0.05,42.25,0)" xlink:href="#ai"/><use transform="matrix(0.05,0,0,0.05,52.25,0)" xlink:href="#an"/><use transform="matrix(0.05,0,0,0.05,62.25,0)" xlink:href="#am"/></g><g id="U"><use transform="matrix(0.05,0,0,0.05,0,0)" xlink:href="#aM"/><use transform="matrix(0.05,0,0,0.05,10,0)" xlink:href="#ai"/><use transform="matrix(0.05,0,0,0.05,20,0)" xlink:href="#as"/><use transform="matrix(0.05,0,0,0.05,25,0)" xlink:href="#cg"/><use transform="matrix(0.05,0,0,0.05,35.35,0)" xlink:href="#ai"/><use transform="matrix(0.05,0,0,0.05,45.35,0)" xlink:href="#an"/><use transform="matrix(0.05,0,0,0.05,55.35,0)" xlink:href="#am"/><use transform="matrix(0.05,0,0,0.05,61.300000000000004,0)" xlink:href="#cf"/><use transform="matrix(0.05,0,0,0.05,76.25,0)" xlink:href="#al"/><use transform="matrix(0.05,0,0,0.05,86.25,0)" xlink:href="#ay"/><use transform="matrix(0.05,0,0,0.05,96.25,0)" xlink:href="#as"/><use transform="matrix(0.05,0,0,0.05,101.25,0)" xlink:href="#aw"/></g><g id="V"><use transform="matrix(0.05,0,0,0.05,0,0)" xlink:href="#aN"/><use transform="matrix(0.05,0,0,0.05,12.950000000000001,0)" xlink:href="#aq"/><use transform="matrix(0.05,0,0,0.05,16.900000000000002,0)" xlink:href="#as"/><use transform="matrix(0.05,0,0,0.05,21.900000000000002,0)" xlink:href="#aw"/><use transform="matrix(0.05,0,0,0.05,31.900000000000002,0)" xlink:href="#aD"/><use transform="matrix(0.05,0,0,0.05,44.85,0)" xlink:href="#an"/><use transform="matrix(0.05,0,0,0.05,54.85,0)" xlink:href="#aE"/></g><path fill="#ef8d22" d="M185-189c-5-48-123-54-124 2 14 75 158 14 163 119 3 78-121 87-175 55-17-10-28-26-33-46l33-7c5 56 141 63 141-1 0-78-155-14-162-118-5-82 145-84 179-34 5 7 8 16 11 25" id="ch"/><path fill="#ef8d22" d="M115-194c55 1 70 41 70 98S169 2 115 4C84 4 66-9 55-30l1 105H24l-1-265h31l2 30c10-21 28-34 59-34zm-8 174c40 0 45-34 45-75s-6-73-45-74c-42 0-51 32-51 76 0 43 10 73 51 73" id="ci"/><path fill="#ef8d22" d="M100-194c63 0 86 42 84 106H49c0 40 14 67 53 68 26 1 43-12 49-29l28 8c-11 28-37 45-77 45C44 4 14-33 15-96c1-61 26-98 85-98zm52 81c6-60-76-77-97-28-3 7-6 17-6 28h103" id="cj"/><path fill="#ef8d22" d="M96-169c-40 0-48 33-48 73s9 75 48 75c24 0 41-14 43-38l32 2c-6 37-31 61-74 61-59 0-76-41-82-99-10-93 101-131 147-64 4 7 5 14 7 22l-32 3c-4-21-16-35-41-35" id="ck"/><path fill="#ef8d22" d="M24-231v-30h32v30H24zM24 0v-190h32V0H24" id="cl"/><path fill="#ef8d22" d="M141-36C126-15 110 5 73 4 37 3 15-17 15-53c-1-64 63-63 125-63 3-35-9-54-41-54-24 1-41 7-42 31l-33-3c5-37 33-52 76-52 45 0 72 20 72 64v82c-1 20 7 32 28 27v20c-31 9-61-2-59-35zM48-53c0 20 12 33 32 33 41-3 63-29 60-74-43 2-92-5-92 41" id="cm"/><path fill="#ef8d22" d="M24 0v-261h32V0H24" id="cn"/><g id="W"><use transform="matrix(0.07469135802469135,0,0,0.07469135802469135,0,0)" xlink:href="#ch"/><use transform="matrix(0.07469135802469135,0,0,0.07469135802469135,17.925925925925924,0)" xlink:href="#ci"/><use transform="matrix(0.07469135802469135,0,0,0.07469135802469135,32.86419753086419,0)" xlink:href="#cj"/><use transform="matrix(0.07469135802469135,0,0,0.07469135802469135,47.802469135802454,0)" xlink:href="#ck"/><use transform="matrix(0.07469135802469135,0,0,0.07469135802469135,61.2469135802469,0)" xlink:href="#cl"/><use transform="matrix(0.07469135802469135,0,0,0.07469135802469135,67.1475308641975,0)" xlink:href="#cm"/><use transform="matrix(0.07469135802469135,0,0,0.07469135802469135,82.08580246913577,0)" xlink:href="#cn"/></g><path fill="#ef8d22" d="M127-220V0H93v-220H8v-28h204v28h-85" id="co"/><path fill="#ef8d22" d="M179-190L93 31C79 59 56 82 12 73V49c39 6 53-20 64-50L1-190h34L92-34l54-156h33" id="cp"/><path fill="#ef8d22" d="M135-143c-3-34-86-38-87 0 15 53 115 12 119 90S17 21 10-45l28-5c4 36 97 45 98 0-10-56-113-15-118-90-4-57 82-63 122-42 12 7 21 19 24 35" id="cq"/><g id="X"><use transform="matrix(0.07469135802469135,0,0,0.07469135802469135,0,0)" xlink:href="#co"/><use transform="matrix(0.07469135802469135,0,0,0.07469135802469135,14.863580246913576,0)" xlink:href="#cp"/><use transform="matrix(0.07469135802469135,0,0,0.07469135802469135,28.30802469135802,0)" xlink:href="#ci"/><use transform="matrix(0.07469135802469135,0,0,0.07469135802469135,43.2462962962963,0)" xlink:href="#cj"/><use transform="matrix(0.07469135802469135,0,0,0.07469135802469135,58.18456790123456,0)" xlink:href="#cq"/></g><path d="M194-120c59 52 2 134-86 124-53-6-90-18-98-63l31-7c8 30 29 43 70 43 46 0 84-17 71-62-32-43-135-20-137-98-3-89 178-90 191-16l-30 9c-8-48-127-53-127 5 0 53 81 35 115 65" id="cr"/><path d="M67-158c15-20 31-36 64-36 94 0 33 127 27 194h-32l25-140c3-38-53-32-70-12C52-117 51-51 37 0H6l51-261h31" id="cs"/><path d="M165-48c-4 18 1 34 23 27l-3 20c-29 8-62 0-52-35h-2C116-14 99 4 63 4 30 4 8-16 8-49c0-68 71-67 138-67 10-26 0-56-31-54-26 1-42 9-47 31l-32-5c8-67 160-71 144 15-5 28-9 54-15 81zM42-50c3 52 80 24 89-6 7-12 7-24 11-38-47 1-103-4-100 44" id="ct"/><path d="M67-158c22-48 132-52 116 29L158 0h-32l25-140c3-38-53-32-70-12C52-117 51-52 38 0H6l36-190h30" id="cu"/><path d="M111-194c62-3 86 47 72 106H45c-7 38 6 69 45 68 27-1 43-14 53-32l24 11C152-15 129 4 87 4 38 3 12-23 12-71c0-70 32-119 99-123zm44 81c14-66-71-72-95-28-4 8-8 17-11 28h106" id="cv"/><g id="Y"><use transform="matrix(0.05,0,0,0.05,0,0)" xlink:href="#cr"/><use transform="matrix(0.05,0,0,0.05,12,0)" xlink:href="#cs"/><use transform="matrix(0.05,0,0,0.05,22,0)" xlink:href="#ct"/><use transform="matrix(0.05,0,0,0.05,32,0)" xlink:href="#cu"/><use transform="matrix(0.05,0,0,0.05,42,0)" xlink:href="#cv"/></g><path d="M87-220l-18 92h140l-5 28H64L45 0H11l48-248h178l-5 28H87" id="cw"/><path d="M14 0l8-38h34L48 0H14" id="cx"/><g id="Z"><use transform="matrix(0.05,0,0,0.05,0,0)" xlink:href="#cw"/><use transform="matrix(0.05,0,0,0.05,8.65,0)" xlink:href="#cx"/></g><path d="M125-24c46 0 70-25 89-51l25 16C214-24 183 4 123 4 8 4-5-146 60-208c32-50 158-61 191-5 5 7 9 14 11 22l-32 10c-9-28-33-43-69-43-74 0-108 51-108 125 0 46 24 75 72 75" id="cy"/><path d="M66-151c12-25 30-51 66-40l-6 26C45-176 58-65 38 0H6l36-190h30" id="cz"/><path d="M58-38C53-5 46 26 28 46H7C19 32 27 18 32 0H17l7-38h34" id="cA"/><g id="aa"><use transform="matrix(0.05,0,0,0.05,0,0)" xlink:href="#cy"/><use transform="matrix(0.05,0,0,0.05,12.950000000000001,0)" xlink:href="#ct"/><use transform="matrix(0.05,0,0,0.05,22.950000000000003,0)" xlink:href="#cz"/><use transform="matrix(0.05,0,0,0.05,28.900000000000002,0)" xlink:href="#cz"/><use transform="matrix(0.05,0,0,0.05,33.85,0)" xlink:href="#cA"/></g><path d="M222 0l43-216c-8 16-17 34-26 49L143 0h-22L81-216 41 0H11l48-248h42l38 208 116-208h45L252 0h-30" id="cB"/><path d="M198-190L69 30C53 58 25 83-20 72c4-11-1-27 19-22 33-1 43-29 59-52L20-190h32L79-34l84-156h35" id="cC"/><g id="ab"><use transform="matrix(0.05,0,0,0.05,0,0)" xlink:href="#cB"/><use transform="matrix(0.05,0,0,0.05,14.950000000000001,0)" xlink:href="#ct"/><use transform="matrix(0.05,0,0,0.05,24.950000000000003,0)" xlink:href="#cC"/></g><path d="M9 0l6-27h63l36-188-63 39 6-31 66-41h29L110-27h60l-5 27H9" id="cD"/><path d="M40-53c7 41 73 38 88 5 14-18 25-43 30-72-13 20-31 35-60 35-44 0-69-27-69-70 0-57 32-96 91-96 58 0 76 44 72 106C186-56 125 37 35-9c-12-6-19-20-23-36zm62-57c67 0 87-116 17-116-39 0-58 29-58 71 1 27 12 45 41 45" id="cE"/><g id="ac"><use transform="matrix(0.05,0,0,0.05,0,0)" xlink:href="#cD"/><use transform="matrix(0.05,0,0,0.05,10,0)" xlink:href="#cE"/><use transform="matrix(0.05,0,0,0.05,20,0)" xlink:href="#cA"/></g><path d="M123-251c66 0 92 69 53 113C138-94 73-75 39-27h128l-5 27H-2c17-92 123-93 159-163 14-28-1-64-36-62-29 2-46 17-54 41l-30-6c13-36 37-61 86-61" id="cF"/><path d="M16-82c0-90 25-169 113-169 48 0 68 33 68 82C197-79 170 4 84 4 37 4 16-31 16-82zm30 5c0 32 11 55 40 55 69 0 76-79 80-149 2-32-10-55-39-55-69 0-81 81-81 149" id="cG"/><g id="ad"><use transform="matrix(0.05,0,0,0.05,0,0)" xlink:href="#cF"/><use transform="matrix(0.05,0,0,0.05,10,0)" xlink:href="#cG"/><use transform="matrix(0.05,0,0,0.05,20,0)" xlink:href="#cF"/><use transform="matrix(0.05,0,0,0.05,30,0)" xlink:href="#cG"/></g><g id="ae"><use transform="matrix(0.06234567901234567,0,0,0.06234567901234567,0,0)" xlink:href="#ah"/><use transform="matrix(0.06234567901234567,0,0,0.06234567901234567,11.159876543209876,0)" xlink:href="#ai"/><use transform="matrix(0.06234567901234567,0,0,0.06234567901234567,23.62901234567901,0)" xlink:href="#aj"/><use transform="matrix(0.06234567901234567,0,0,0.06234567901234567,42.27037037037036,0)" xlink:href="#ak"/><use transform="matrix(0.06234567901234567,0,0,0.06234567901234567,54.73950617283949,0)" xlink:href="#al"/><use transform="matrix(0.06234567901234567,0,0,0.06234567901234567,67.20864197530862,0)" xlink:href="#am"/><use transform="matrix(0.06234567901234567,0,0,0.06234567901234567,74.62777777777775,0)" xlink:href="#an"/><use transform="matrix(0.06234567901234567,0,0,0.06234567901234567,87.09691358024688,0)" xlink:href="#ao"/><use transform="matrix(0.06234567901234567,0,0,0.06234567901234567,92.02222222222218,0)" xlink:href="#ap"/><use transform="matrix(0.06234567901234567,0,0,0.06234567901234567,98.25679012345675,0)" xlink:href="#ah"/><use transform="matrix(0.06234567901234567,0,0,0.06234567901234567,111.09999999999995,0)" xlink:href="#aq"/><use transform="matrix(0.06234567901234567,0,0,0.06234567901234567,116.02530864197526,0)" xlink:href="#aj"/><use transform="matrix(0.06234567901234567,0,0,0.06234567901234567,134.6666666666666,0)" xlink:href="#ai"/></g><g id="af"><use transform="matrix(0.05,0,0,0.05,0,0)" xlink:href="#aM"/><use transform="matrix(0.05,0,0,0.05,10,0)" xlink:href="#ai"/><use transform="matrix(0.05,0,0,0.05,20,0)" xlink:href="#as"/><use transform="matrix(0.05,0,0,0.05,25,0)" xlink:href="#ah"/><use transform="matrix(0.05,0,0,0.05,35.300000000000004,0)" xlink:href="#aq"/><use transform="matrix(0.05,0,0,0.05,39.25000000000001,0)" xlink:href="#aj"/><use transform="matrix(0.05,0,0,0.05,54.20000000000002,0)" xlink:href="#ai"/></g><g id="ag"><use transform="matrix(0.05,0,0,0.05,0,0)" xlink:href="#aN"/><use transform="matrix(0.05,0,0,0.05,12.950000000000001,0)" xlink:href="#aq"/><use transform="matrix(0.05,0,0,0.05,16.900000000000002,0)" xlink:href="#as"/><use transform="matrix(0.05,0,0,0.05,21.900000000000002,0)" xlink:href="#aw"/><use transform="matrix(0.05,0,0,0.05,31.900000000000002,0)" xlink:href="#aD"/><use transform="matrix(0.05,0,0,0.05,44.85,0)" xlink:href="#an"/><use transform="matrix(0.05,0,0,0.05,54.85,0)" xlink:href="#as"/><use transform="matrix(0.05,0,0,0.05,59.85,0)" xlink:href="#ai"/></g></defs></g></svg>